<?xml version="1.0" encoding="UTF-8"?>
<svg version="1.1" xmlns="http://www.w3.org/2000/svg" width="225" height="153">
<path d="M0 0 C74.25 0 148.5 0 225 0 C225 50.49 225 100.98 225 153 C150.75 153 76.5 153 0 153 C0 102.51 0 52.02 0 0 Z " fill="#010101" transform="translate(0,0)"/>
<path d="M0 0 C0.71091797 -0.00773437 1.42183594 -0.01546875 2.15429688 -0.0234375 C5.91262031 -0.00929517 7.6114956 0.11599707 10.8125 2.25 C11.4375 4.5625 11.4375 4.5625 10.8125 7.25 C3.11317861 14.13024464 -5.05428037 15.76876224 -15.2109375 15.5546875 C-18.92511382 15.17449622 -21.134484 14.34349669 -24.1875 12.25 C-26.4095333 16.56335876 -26.40110476 19.56895309 -25.1875 24.25 C-23.74403369 26.16821694 -23.74403369 26.16821694 -21.1875 27.25 C-18.07597672 27.4672409 -15.03974644 27.21137019 -11.9375 26.9375 C-11.09703125 26.87626953 -10.2565625 26.81503906 -9.390625 26.75195312 C-7.32179401 26.59914175 -5.25444492 26.42649838 -3.1875 26.25 C-4.1875 28.25 -4.1875 28.25 -6.91796875 29.29296875 C-8.05878906 29.67066406 -9.19960938 30.04835938 -10.375 30.4375 C-17.11072422 32.92180663 -20.98190571 35.83881143 -24.1875 42.25 C-24.33351706 43.91234811 -24.40839834 45.58150507 -24.4375 47.25 C-24.46328125 48.136875 -24.4890625 49.02375 -24.515625 49.9375 C-24.40734375 50.700625 -24.2990625 51.46375 -24.1875 52.25 C-18.12203084 56.29364611 -8.80219401 53.80445996 -1.84472656 52.796875 C3.86919334 51.62091207 8.18073147 48.72189327 12.8125 45.25 C13.7096875 44.74082031 14.606875 44.23164062 15.53125 43.70703125 C18.06223535 42.36514612 18.06223535 42.36514612 19.25 39.375 C21.20741455 35.4601709 23.34941117 33.86655601 26.8125 31.25 C28.1325 31.91 29.4525 32.57 30.8125 33.25 C30.4825 34.24 30.1525 35.23 29.8125 36.25 C31.1325 36.91 32.4525 37.57 33.8125 38.25 C33.29844831 43.21916636 32.57865118 47.54026351 30.8125 52.25 C33.4525 51.59 36.0925 50.93 38.8125 50.25 C38.833125 49.21875 38.85375 48.1875 38.875 47.125 C39.94999483 42.68168802 41.11113112 41.07782793 44.65234375 38.34375 C48.6223655 36.3336124 52.49389068 36.76018968 56.8125 37.25 C57.53695312 37.33121094 58.26140625 37.41242188 59.0078125 37.49609375 C60.61511715 37.7075812 62.2153155 37.97222878 63.8125 38.25 C63.8125 40.23 63.8125 42.21 63.8125 44.25 C63.4825 43.59 63.1525 42.93 62.8125 42.25 C61.4925 42.25 60.1725 42.25 58.8125 42.25 C58.8125 41.59 58.8125 40.93 58.8125 40.25 C52.00685029 41.04765901 52.00685029 41.04765901 46.25 44.4375 C44.56290505 47.73833795 44.1009999 50.57162627 43.8125 54.25 C41.42685923 53.67415568 39.14567216 53.02772405 36.8125 52.25 C36.8125 52.91 36.8125 53.57 36.8125 54.25 C33.79925805 55.75662097 31.12963623 55.42770373 27.8125 55.25 C25.8125 53.25 25.8125 53.25 25.625 49.3125 C25.65059684 46.57363845 25.92585844 44.90992468 26.8125 42.25 C23.72129993 44.78920006 22.22028347 47.29611883 20.671875 50.91015625 C20.32092773 51.72234619 19.96998047 52.53453613 19.60839844 53.37133789 C19.34575195 53.99129639 19.08310547 54.61125488 18.8125 55.25 C18.22984375 55.2593457 17.6471875 55.26869141 17.046875 55.27832031 C5.55397713 55.50872039 -5.09836114 56.20669617 -16.16796875 59.41015625 C-19.1875 60.25 -19.1875 60.25 -22.1875 60.25 C-21.8575 62.23 -21.5275 64.21 -21.1875 66.25 C-19.5478125 65.569375 -19.5478125 65.569375 -17.875 64.875 C-7.06610083 60.84553406 3.53956334 60.61030012 14.8125 62.25 C14.8125 62.58 14.8125 62.91 14.8125 63.25 C14.223479 63.3001123 13.63445801 63.35022461 13.02758789 63.40185547 C10.30948087 63.63668458 7.59227972 63.88079109 4.875 64.125 C3.48571289 64.24294922 3.48571289 64.24294922 2.06835938 64.36328125 C-2.39987853 64.77090997 -6.8382786 65.2652191 -11.25390625 66.0703125 C-11.96619385 66.19937988 -12.67848145 66.32844727 -13.41235352 66.46142578 C-15.81194496 67.5273975 -16.25370649 68.86488157 -17.1875 71.25 C-8.67093803 82.82357756 -8.67093803 82.82357756 3.8125 89.25 C11.33839487 89.95831952 18.5905436 88.99505113 26 87.6875 C28.8125 87.25 28.8125 87.25 32.8125 87.25 C32.3175 88.19875 31.8225 89.1475 31.3125 90.125 C29.66825631 92.97278166 29.66825631 92.97278166 29.8125 95.25 C25.5225 95.25 21.2325 95.25 16.8125 95.25 C16.8125 95.91 16.8125 96.57 16.8125 97.25 C18.4625 97.25 20.1125 97.25 21.8125 97.25 C21.8125 97.58 21.8125 97.91 21.8125 98.25 C9.13407715 98.69923546 -2.38083698 97.45986704 -13.1875 90.25 C-16.25214797 86.87321196 -18.60379296 83.15945794 -20.9375 79.25 C-21.55109375 78.239375 -22.1646875 77.22875 -22.796875 76.1875 C-24.22086198 73.1795275 -24.57343991 71.5191381 -24.1875 68.25 C-23.6925 67.26 -23.6925 67.26 -23.1875 66.25 C-23.46692455 64.57345271 -23.79578247 62.90391846 -24.1875 61.25 C-25.981875 61.4046875 -25.981875 61.4046875 -27.8125 61.5625 C-31.22899487 61.58070512 -32.98988403 61.06131276 -35.625 58.875 C-38.72930776 55.69497742 -39.0924858 55.03726054 -39.625 50.625 C-39.5369462 45.22436677 -36.8583617 41.99798065 -33.1875 38.25 C-26.29388298 32.25 -26.29388298 32.25 -23.1875 32.25 C-23.1875 31.59 -23.1875 30.93 -23.1875 30.25 C-24.30125 30.1571875 -24.30125 30.1571875 -25.4375 30.0625 C-29.16251049 28.96192872 -30.2342078 27.57783116 -32.1875 24.25 C-33.16503752 19.16680489 -31.94541087 16.47550764 -29.1875 12.3125 C-28.20281273 10.94715816 -27.20770087 9.58901364 -26.1875 8.25 C-27.1775 7.92 -28.1675 7.59 -29.1875 7.25 C-29.5175 6.26 -29.8475 5.27 -30.1875 4.25 C-29.5275 4.25 -28.8675 4.25 -28.1875 4.25 C-28.1875 4.91 -28.1875 5.57 -28.1875 6.25 C-25.56629818 7.24653986 -24.47637242 7.36297486 -21.8203125 6.32421875 C-20.99273438 5.86660156 -20.16515625 5.40898438 -19.3125 4.9375 C-12.82677507 1.38966614 -7.41353553 -0.08199302 0 0 Z " fill="#EFEFEF" transform="translate(47.1875,32.75)"/>
<path d="M0 0 C-1.01318412 6.7424991 -4.58378414 12.58378414 -9.375 17.375 C-10.24125 17.91125 -11.1075 18.4475 -12 19 C-12.53882813 19.34546875 -13.07765625 19.6909375 -13.6328125 20.046875 C-22.52478884 25.18115422 -34.93606961 26.32347578 -45 25 C-55.11882693 21.75269738 -61.24689808 14.54248467 -67 6 C-65.63016497 2.83884224 -65.0109362 2.0072908 -62 0 C-41.69276607 -4.23875415 -20.20039511 -4.62352368 0 0 Z " fill="#010101" transform="translate(96,98)"/>
<path d="M0 0 C2.3125 1.1875 2.3125 1.1875 4 3 C4.64645105 10.17063399 1.44100761 14.65691272 -3 20 C-11.30452336 29.13497569 -20.08231482 37.63593509 -30 45 C-29.34 47.31 -28.68 49.62 -28 52 C-22.39577128 51.57968285 -18.30962131 49.48653913 -14 46 C-12.63178949 44.02369593 -11.29048808 42.02790984 -10 40 C-7.9375 38.9375 -7.9375 38.9375 -6 39 C-4.25 40.4375 -4.25 40.4375 -3 42 C-3.66 42.99 -4.32 43.98 -5 45 C-5.99 45 -6.98 45 -8 45 C-8.66 48.3 -9.32 51.6 -10 55 C-2.02320081 52.3253583 -2.02320081 52.3253583 5 48 C5.04166002 45.6670386 5.04166002 43.3329614 5 41 C6.6875 39.0625 6.6875 39.0625 9 38 C11.75 37.8125 11.75 37.8125 14 38 C14 38.99 14 39.98 14 41 C13.01 41.33 12.02 41.66 11 42 C11 42.99 11 43.98 11 45 C11.845625 45.78375 12.69125 46.5675 13.5625 47.375 C16 50 16 50 16.3125 52.4375 C14.27148987 56.4223293 10.95602841 58.95885768 7 61 C4.234375 61.16796875 4.234375 61.16796875 2 61 C1.31640625 59.234375 1.31640625 59.234375 1 57 C2.21484375 55.078125 2.21484375 55.078125 3.9375 53.25 C4.50339844 52.63640625 5.06929687 52.0228125 5.65234375 51.390625 C6.31943359 50.70226562 6.31943359 50.70226562 7 50 C6.05898437 50.51691406 5.11796875 51.03382812 4.1484375 51.56640625 C2.89107495 52.23262073 1.63323687 52.89793827 0.375 53.5625 C-0.55119141 54.07586914 -0.55119141 54.07586914 -1.49609375 54.59960938 C-5.75050879 56.81638353 -8.38911936 57.39682561 -13 56 C-14.875 54.5625 -14.875 54.5625 -16 53 C-16 52.34 -16 51.68 -16 51 C-16.56847656 51.30035156 -17.13695312 51.60070312 -17.72265625 51.91015625 C-22.8366037 54.42871134 -26.3230476 55.85592675 -32 54 C-34.9375 52.125 -34.9375 52.125 -37 49 C-38.41131664 41.31203829 -36.4540061 34.82111897 -33 28 C-32.41605469 26.81664062 -32.41605469 26.81664062 -31.8203125 25.609375 C-28.87713048 20.21063876 -25.18550795 15.70759045 -21.0625 11.1875 C-20.57265625 10.64826904 -20.0828125 10.10903809 -19.578125 9.5534668 C-14.2703404 3.91394566 -8.22393244 -2.40700462 0 0 Z " fill="#060606" transform="translate(149,35)"/>
<path d="M0 0 C0.495 0.99 0.495 0.99 1 2 C0.34 2.99 -0.32 3.98 -1 5 C-1.31254378 7.72283905 -1.13333428 10.24442486 -1 13 C0.00836062 14.23267348 0.00836062 14.23267348 2.06640625 14.09765625 C2.89011719 14.08605469 3.71382812 14.07445313 4.5625 14.0625 C5.38878906 14.05347656 6.21507812 14.04445313 7.06640625 14.03515625 C7.70449219 14.02355469 8.34257813 14.01195313 9 14 C9 13.34 9 12.68 9 12 C11.38564077 12.57584432 13.66682784 13.22227595 16 14 C15.896875 12.96875 15.79375 11.9375 15.6875 10.875 C16.09675008 5.80029899 17.46272683 4.53727317 21 1 C24.17746491 -0.58873246 27.54012202 -0.41026221 31 0 C33.5 1.5 33.5 1.5 35 3 C34.01 3.66 33.02 4.32 32 5 C30.92863949 7.30144109 29.92010283 9.6340213 29 12 C31.475 11.505 31.475 11.505 34 11 C32 13 32 13 29 14 C28.34 17.3 27.68 20.6 27 24 C28.4025 24.7425 29.805 25.485 31.25 26.25 C34.6640362 28.14788154 37.5383645 29.89619872 40 33 C40 33.66 40 34.32 40 35 C40.66 35 41.32 35 42 35 C41.67 36.32 41.34 37.64 41 39 C35.57558638 38.56604691 32.23941629 37.45068767 28 34 C26.625 31.75 26.625 31.75 26 30 C28.0362449 31.01812245 30.06360955 32.03469612 32.0625 33.125 C34.10136548 34.20579336 34.10136548 34.20579336 37 34 C36.67 33.01 36.34 32.02 36 31 C33.75256244 29.84979475 33.75256244 29.84979475 31 29 C29.906875 28.62875 28.81375 28.2575 27.6875 27.875 C26.800625 27.58625 25.91375 27.2975 25 27 C24.73703125 27.85464844 24.4740625 28.70929688 24.203125 29.58984375 C21.33098682 37.73067696 17.55213637 46.37624304 10 51 C7.35508963 52.16644868 4.75456442 53.09764269 2 54 C1.67 53.34 1.34 52.68 1 52 C3.26563781 47.58200628 5.47971205 44.84460442 9.8125 42.4375 C15.69793073 38.65086377 18.5341621 31.28316986 21 25 C10.55678049 23.51847271 0.20786129 22.56649758 -10.33666992 22.25708008 C-12.56599067 22.18739088 -14.79320305 22.09108612 -17.02148438 21.99414062 C-26.79450074 21.64590594 -35.49586697 22.63705209 -45 25 C-45.79736572 25.19746826 -46.59473145 25.39493652 -47.41625977 25.59838867 C-47.93889404 25.73092041 -48.46152832 25.86345215 -49 26 C-49.33 24.02 -49.66 22.04 -50 20 C-36.10336013 15.50686009 -23.57126756 14.32703397 -9 15 C-8.8138916 14.38511719 -8.6277832 13.77023438 -8.43603516 13.13671875 C-8.18128418 12.32847656 -7.9265332 11.52023438 -7.6640625 10.6875 C-7.4160791 9.88699219 -7.1680957 9.08648437 -6.91259766 8.26171875 C-5.6260977 5.07334647 -3.59886042 3.18851404 -1 1 C-0.67 0.67 -0.34 0.34 0 0 Z " fill="#EDEDED" transform="translate(75,73)"/>
<path d="M0 0 C0.99 0.66 1.98 1.32 3 2 C2.71601983 8.67353409 -0.07805532 12.71077185 -4 18 C-4.66 17.67 -5.32 17.34 -6 17 C-4.7934375 15.453125 -4.7934375 15.453125 -3.5625 13.875 C-1.22200704 10.62872304 -0.29641289 8.05097617 0 4 C-6.42431979 5.6007854 -6.42431979 5.6007854 -11 9.8125 C-11.33 10.534375 -11.66 11.25625 -12 12 C-12.66 12.763125 -13.32 13.52625 -14 14.3125 C-16.35557213 17.47780005 -16.97066555 20.20432921 -18 24 C-19.23204381 26.72195726 -20.59065517 29.36603029 -22 32 C-21.45730469 31.51789062 -20.91460937 31.03578125 -20.35546875 30.5390625 C-19.64003906 29.90742187 -18.92460937 29.27578125 -18.1875 28.625 C-17.47980469 27.99851562 -16.77210938 27.37203125 -16.04296875 26.7265625 C-14 25 -14 25 -11 23 C-12.44575901 26.33865998 -14.26714538 28.48071403 -16.875 31 C-17.55304688 31.66 -18.23109375 32.32 -18.9296875 33 C-20.34177566 34.36413045 -21.75865951 35.72330978 -23.1796875 37.078125 C-25.23287618 39.24586927 -26.06266566 41.18799699 -27 44 C-26.36191406 43.98839844 -25.72382813 43.97679687 -25.06640625 43.96484375 C-24.24011719 43.95582031 -23.41382813 43.94679687 -22.5625 43.9375 C-21.73878906 43.92589844 -20.91507813 43.91429687 -20.06640625 43.90234375 C-18 44 -18 44 -17 45 C-16.62571491 48.83642222 -17.12887274 51.67862549 -18.515625 55.21484375 C-18.79180664 55.92632568 -19.06798828 56.63780762 -19.35253906 57.37084961 C-19.67303223 58.17727905 -19.67303223 58.17727905 -20 59 C-18.91203125 58.4946875 -17.8240625 57.989375 -16.703125 57.46875 C0.61997178 49.70042997 0.61997178 49.70042997 9 52 C11.24617358 54.33368684 11.94791472 55.44008322 12.25 58.6875 C12 61 12 61 11 62 C5.54121353 62.19153637 0.40196781 61.77170969 -5 61 C-4.01 61.66 -3.02 62.32 -2 63 C-2.495 64.98 -2.495 64.98 -3 67 C-3.33 66.01 -3.66 65.02 -4 64 C-6.71373838 64.97996108 -8.81626178 65.84966873 -11.0625 67.6875 C-13 69 -13 69 -15.1875 68.875 C-15.785625 68.58625 -16.38375 68.2975 -17 68 C-17.33 67.01 -17.66 66.02 -18 65 C-11.69962222 59.44966719 -6.79428363 56.48488172 1.875 56.8125 C2.56335938 56.82603516 3.25171875 56.83957031 3.9609375 56.85351562 C5.64097001 56.8885163 7.3205935 56.94231046 9 57 C7.77214142 55.38556326 7.77214142 55.38556326 6 54 C-0.85453609 53.7626739 -8.12480365 57.41853478 -14.37768555 59.96655273 C-21.13925598 62.66103814 -21.13925598 62.66103814 -25 62 C-27 59 -27 59 -26.75 56.25 C-25.95046422 52.78534497 -25.02160945 49.40536485 -24 46 C-28.11167982 50.34010648 -30.06505483 54.23742711 -31.91015625 59.92578125 C-33 62 -33 62 -35.12109375 62.79296875 C-36.05115234 62.89544922 -36.05115234 62.89544922 -37 63 C-38.25866558 50.04972968 -33.47061083 37.96215917 -28.4375 26.25 C-28.15704834 25.59491455 -27.87659668 24.9398291 -27.58764648 24.26489258 C-25.84149036 20.37593391 -23.79937971 17.20979205 -21 14 C-20.01 15.485 -20.01 15.485 -19 17 C-16.74260002 14.27658101 -16.74260002 14.27658101 -15.5625 11 C-14.78077296 8.22052609 -13.10569305 6.9019163 -11 5 C-11.66 4.67 -12.32 4.34 -13 4 C-8.68124837 0.57478319 -5.53230711 -0.34576919 0 0 Z " fill="#F5F5F5" transform="translate(204,31)"/>
<path d="M0 0 C0.66 0 1.32 0 2 0 C2.33 1.65 2.66 3.3 3 5 C4.093125 4.54625 5.18625 4.0925 6.3125 3.625 C17.12139917 -0.40446594 27.72706334 -0.63969988 39 1 C39 1.33 39 1.66 39 2 C38.410979 2.0501123 37.82195801 2.10022461 37.21508789 2.15185547 C34.49698087 2.38668458 31.77977972 2.63079109 29.0625 2.875 C28.13630859 2.95363281 27.21011719 3.03226562 26.25585938 3.11328125 C21.78762147 3.52090997 17.3492214 4.0152191 12.93359375 4.8203125 C12.22130615 4.94937988 11.50901855 5.07844727 10.77514648 5.21142578 C8.37555504 6.2773975 7.93379351 7.61488157 7 10 C15.51656197 21.57357756 15.51656197 21.57357756 28 28 C35.52589487 28.70831952 42.7780436 27.74505113 50.1875 26.4375 C53 26 53 26 57 26 C56.505 26.94875 56.01 27.8975 55.5 28.875 C53.85575631 31.72278166 53.85575631 31.72278166 54 34 C49.71 34 45.42 34 41 34 C41 34.66 41 35.32 41 36 C42.65 36 44.3 36 46 36 C46 36.33 46 36.66 46 37 C33.32157715 37.44923546 21.80666302 36.20986704 11 29 C7.93535203 25.62321196 5.58370704 21.90945794 3.25 18 C2.63640625 16.989375 2.0228125 15.97875 1.390625 14.9375 C-0.03336198 11.9295275 -0.38593991 10.2691381 0 7 C0.33 6.34 0.66 5.68 1 5 C0.72057545 3.32345271 0.39171753 1.65391846 0 0 Z " fill="#E7E7E7" transform="translate(23,94)"/>
<path d="M0 0 C0.495 0.99 0.495 0.99 1 2 C0.34 2.99 -0.32 3.98 -1 5 C-1.31254378 7.72283905 -1.13333428 10.24442486 -1 13 C0.00836062 14.23267348 0.00836062 14.23267348 2.06640625 14.09765625 C2.89011719 14.08605469 3.71382812 14.07445313 4.5625 14.0625 C5.38878906 14.05347656 6.21507812 14.04445313 7.06640625 14.03515625 C7.70449219 14.02355469 8.34257813 14.01195313 9 14 C9 13.34 9 12.68 9 12 C12.875 12.875 12.875 12.875 14 14 C18.89562473 14.28243989 21.31250395 13.87499842 26 12 C25.01 15.63 24.02 19.26 23 23 C21.82824219 22.7834375 21.82824219 22.7834375 20.6328125 22.5625 C-2.31643577 18.88244237 -26.53340032 20.04595415 -49 26 C-49.33 24.02 -49.66 22.04 -50 20 C-36.10336013 15.50686009 -23.57126756 14.32703397 -9 15 C-8.8138916 14.38511719 -8.6277832 13.77023438 -8.43603516 13.13671875 C-8.18128418 12.32847656 -7.9265332 11.52023438 -7.6640625 10.6875 C-7.4160791 9.88699219 -7.1680957 9.08648437 -6.91259766 8.26171875 C-5.6260977 5.07334647 -3.59886042 3.18851404 -1 1 C-0.67 0.67 -0.34 0.34 0 0 Z " fill="#060606" transform="translate(75,73)"/>
<path d="M0 0 C0.33 0.66 0.66 1.32 1 2 C0.06553465 4.03144641 -0.93224776 6.03533587 -2 8 C-1.67 8.33 -1.34 8.66 -1 9 C-0.67 9.66 -0.34 10.32 0 11 C0.66 11 1.32 11 2 11 C2 12.98 2 14.96 2 17 C3.32 15.68 4.64 14.36 6 13 C6.66 13.33 7.32 13.66 8 14 C5.69 15.98 3.38 17.96 1 20 C1.66 22.31 2.32 24.62 3 27 C8.60422872 26.57968285 12.69037869 24.48653913 17 21 C18.36821051 19.02369593 19.70951192 17.02790984 21 15 C23.0625 13.9375 23.0625 13.9375 25 14 C26.75 15.4375 26.75 15.4375 28 17 C27.34 17.99 26.68 18.98 26 20 C25.01 20 24.02 20 23 20 C22.34 23.3 21.68 26.6 21 30 C28.97679919 27.3253583 28.97679919 27.3253583 36 23 C36.04166002 20.6670386 36.04166002 18.3329614 36 16 C37.6875 14.0625 37.6875 14.0625 40 13 C42.75 12.8125 42.75 12.8125 45 13 C45 13.99 45 14.98 45 16 C44.01 16.33 43.02 16.66 42 17 C42 17.99 42 18.98 42 20 C42.845625 20.78375 43.69125 21.5675 44.5625 22.375 C47 25 47 25 47.3125 27.4375 C45.27148987 31.4223293 41.95602841 33.95885768 38 36 C35.234375 36.16796875 35.234375 36.16796875 33 36 C32.31640625 34.234375 32.31640625 34.234375 32 32 C33.21484375 30.078125 33.21484375 30.078125 34.9375 28.25 C35.50339844 27.63640625 36.06929687 27.0228125 36.65234375 26.390625 C37.09707031 25.93171875 37.54179687 25.4728125 38 25 C37.05898437 25.51691406 36.11796875 26.03382812 35.1484375 26.56640625 C33.89107495 27.23262073 32.63323687 27.89793827 31.375 28.5625 C30.44880859 29.07586914 30.44880859 29.07586914 29.50390625 29.59960938 C25.24949121 31.81638353 22.61088064 32.39682561 18 31 C16.125 29.5625 16.125 29.5625 15 28 C15 27.34 15 26.68 15 26 C14.43152344 26.30035156 13.86304688 26.60070312 13.27734375 26.91015625 C8.1633963 29.42871134 4.6769524 30.85592675 -1 29 C-3.9375 27.125 -3.9375 27.125 -6 24 C-7.61543962 15.20010524 -4.85719543 7.28579315 0 0 Z " fill="#F1F1F1" transform="translate(118,60)"/>
<path d="M0 0 C1.32 0.66 2.64 1.32 4 2 C3.67 2.99 3.34 3.98 3 5 C4.32 5.66 5.64 6.32 7 7 C6.48594831 11.96916636 5.76615118 16.29026351 4 21 C6.64 20.34 9.28 19.68 12 19 C12.020625 17.96875 12.04125 16.9375 12.0625 15.875 C13.13749483 11.43168802 14.29863112 9.82782793 17.83984375 7.09375 C21.8098655 5.0836124 25.68139068 5.51018968 30 6 C31.08667969 6.12181641 31.08667969 6.12181641 32.1953125 6.24609375 C33.80261715 6.4575812 35.4028155 6.72222878 37 7 C37 8.98 37 10.96 37 13 C36.505 12.01 36.505 12.01 36 11 C34.68 11 33.36 11 32 11 C32 10.34 32 9.68 32 9 C25.19435029 9.79765901 25.19435029 9.79765901 19.4375 13.1875 C17.75040505 16.48833795 17.2884999 19.32162627 17 23 C14.61435923 22.42415568 12.33317216 21.77772405 10 21 C10 21.66 10 22.32 10 23 C6.98675805 24.50662097 4.31713623 24.17770373 1 24 C-1 22 -1 22 -1.1875 18.0625 C-1.16190316 15.32363845 -0.88664156 13.65992468 0 11 C-4.31385796 14.54352618 -5.9721398 18.95192247 -8 24 C-9.32 24 -10.64 24 -12 24 C-11.91284983 22.06166004 -11.80467036 20.1242571 -11.6875 18.1875 C-11.62949219 17.10855469 -11.57148437 16.02960938 -11.51171875 14.91796875 C-10.95816507 11.76144509 -10.4113272 10.96779292 -8 9 C-7.731875 8.38125 -7.46375 7.7625 -7.1875 7.125 C-5.41281974 3.94925638 -2.85533405 2.23460925 0 0 Z " fill="#EBEBEB" transform="translate(74,64)"/>
<path d="M0 0 C2.33294775 -0.04241723 4.66702567 -0.04092937 7 0 C8 1 8 1 8.25 3.5625 C8.02836993 6.60991351 7.57483497 8.43417083 6.484375 11.21484375 C6.20819336 11.92632568 5.93201172 12.63780762 5.64746094 13.37084961 C5.43379883 13.90846924 5.22013672 14.44608887 5 15 C6.08796875 14.4946875 7.1759375 13.989375 8.296875 13.46875 C25.61997178 5.70042997 25.61997178 5.70042997 34 8 C36.24617358 10.33368684 36.94791472 11.44008322 37.25 14.6875 C37 17 37 17 36 18 C30.54121353 18.19153637 25.40196781 17.77170969 20 17 C20.99 17.66 21.98 18.32 23 19 C22.67 20.32 22.34 21.64 22 23 C21.67 22.01 21.34 21.02 21 20 C18.28626162 20.97996108 16.18373822 21.84966873 13.9375 23.6875 C12 25 12 25 9.8125 24.875 C8.9153125 24.441875 8.9153125 24.441875 8 24 C7.67 23.01 7.34 22.02 7 21 C13.30037778 15.44966719 18.20571637 12.48488172 26.875 12.8125 C27.56335938 12.82603516 28.25171875 12.83957031 28.9609375 12.85351562 C30.64097001 12.8885163 32.3205935 12.94231046 34 13 C32.77214142 11.38556326 32.77214142 11.38556326 31 10 C24.14546391 9.7626739 16.87519635 13.41853478 10.62231445 15.96655273 C3.86074402 18.66103814 3.86074402 18.66103814 0 18 C-2 15 -2 15 -1.8125 12.3125 C-0.84646148 8.37403526 0.50527047 4.76931795 2 1 C1.34 0.67 0.68 0.34 0 0 Z " fill="#F1F1F1" transform="translate(179,75)"/>
<path d="M0 0 C2.3125 1.1875 2.3125 1.1875 4 3 C4.5781463 9.41297668 2.34661265 13.15429204 -1.46044922 18.16455078 C-7.4120628 25.26005203 -14.32267862 31.59768315 -21 38 C-21.66 37.67 -22.32 37.34 -23 37 C-22.2265625 36.16597656 -21.453125 35.33195312 -20.65625 34.47265625 C-17.94539866 31.54640189 -15.24279281 28.61265858 -12.54345703 25.67578125 C-11.20946172 24.22741937 -9.86899728 22.78502077 -8.52734375 21.34375 C-3.54862435 15.90903574 0.20591008 11.67015036 0 4 C-8.53225657 5.95709708 -13.80182959 8.88806661 -19.1875 15.8125 C-21.16909668 18.2040822 -22.00304072 18.60040543 -25 19 C-25.66 19.33 -26.32 19.66 -27 20 C-23.39857278 11.77358202 -15.57510779 4.64446654 -8 0 C-4.62858491 -1.12380503 -3.35507997 -0.98197462 0 0 Z " fill="#F0F0F0" transform="translate(149,35)"/>
<path d="M0 0 C0.54727337 5.39921941 -1.09382252 8.456369 -4.1875 12.6875 C-4.57486328 13.25533203 -4.96222656 13.82316406 -5.36132812 14.40820312 C-7.86578353 17.93927827 -10.22963468 19.94901952 -14 22 C-15.72672908 23.55988186 -15.72672908 23.55988186 -17.1875 25.1875 C-18.115625 26.115625 -19.04375 27.04375 -20 28 C-20.66 28 -21.32 28 -22 28 C-20.94124926 24.59687262 -19.99097846 21.98646769 -18 19 C-17.7525 17.948125 -17.505 16.89625 -17.25 15.8125 C-15.21907107 8.26448067 -8.44678356 -0.96534669 0 0 Z " fill="#0B0B0B" transform="translate(204,35)"/>
<path d="M0 0 C0.66 0.33 1.32 0.66 2 1 C1.67 2.32 1.34 3.64 1 5 C0.34 5 -0.32 5 -1 5 C-0.67 6.32 -0.34 7.64 0 9 C0.99 8.01 1.98 7.02 3 6 C4.32 6.66 5.64 7.32 7 8 C3.31696172 13.74777186 -0.23750163 18.06984133 -7 20 C-10 19.75 -10 19.75 -12 19 C-12.66 16.69 -13.32 14.38 -14 12 C-9.38 8.04 -4.76 4.08 0 0 Z " fill="#020202" transform="translate(132,68)"/>
<path d="M0 0 C0.33 0.66 0.66 1.32 1 2 C0.06553465 4.03144641 -0.93224776 6.03533587 -2 8 C-1.67 8.33 -1.34 8.66 -1 9 C-0.67 9.66 -0.34 10.32 0 11 C0.66 11 1.32 11 2 11 C2 12.98 2 14.96 2 17 C3.32 15.68 4.64 14.36 6 13 C6.66 13.33 7.32 13.66 8 14 C5.69 15.98 3.38 17.96 1 20 C1.66 22.31 2.32 24.62 3 27 C7.19469571 26.40075776 11.00999834 25.42500059 15 24 C15.33 25.32 15.66 26.64 16 28 C15.67 27.34 15.34 26.68 15 26 C14.43152344 26.30035156 13.86304688 26.60070312 13.27734375 26.91015625 C8.1633963 29.42871134 4.6769524 30.85592675 -1 29 C-3.9375 27.125 -3.9375 27.125 -6 24 C-7.61543962 15.20010524 -4.85719543 7.28579315 0 0 Z " fill="#E5E5E5" transform="translate(118,60)"/>
<path d="M0 0 C0.99 0.33 1.98 0.66 3 1 C-2.75 6 -2.75 6 -5 6 C-5.08507812 6.52722656 -5.17015625 7.05445313 -5.2578125 7.59765625 C-6.28046621 10.90782485 -8.02797737 13.5113561 -9.875 16.4375 C-10.92300781 18.10619141 -10.92300781 18.10619141 -11.9921875 19.80859375 C-12.65476562 20.86175781 -13.31734375 21.91492188 -14 23 C-15.79814599 25.95379899 -17.4995592 28.88369989 -19 32 C-19 31.34 -19 30.68 -19 30 C-19.99 29.67 -20.98 29.34 -22 29 C-22.66 29.66 -23.32 30.32 -24 31 C-23.11352457 24.79467201 -21.74153657 19.12729085 -18 14 C-15.72401077 12.42431515 -13.56078116 11.22781735 -11 10.1875 C-7.98794873 8.39909456 -6.20051283 5.69562821 -4 3 C-1.875 1.0625 -1.875 1.0625 0 0 Z " fill="#585858" transform="translate(139,41)"/>
<path d="M0 0 C-0.33 1.32 -0.66 2.64 -1 4 C-0.34 4.33 0.32 4.66 1 5 C1.99 4.67 2.98 4.34 4 4 C3.796875 6.328125 3.796875 6.328125 3 9 C0.890625 10.546875 0.890625 10.546875 -1.75 11.75 C-2.61109375 12.15734375 -3.4721875 12.5646875 -4.359375 12.984375 C-6.90982386 13.96531687 -9.30917592 14.55475573 -12 15 C-11.125 7.25 -11.125 7.25 -10 5 C-9.01 4.67 -8.02 4.34 -7 4 C-6.6278958 2.67696283 -6.29369827 1.34262065 -6 0 C-3.50907189 -1.24546405 -2.58919267 -0.7767578 0 0 Z " fill="#0E0E0E" transform="translate(151,75)"/>
<path d="M0 0 C0.72445312 0.08121094 1.44890625 0.16242188 2.1953125 0.24609375 C3.80261715 0.4575812 5.4028155 0.72222878 7 1 C7 2.98 7 4.96 7 7 C6.67 6.34 6.34 5.68 6 5 C4.68 5 3.36 5 2 5 C2 4.34 2 3.68 2 3 C-4.80564971 3.79765901 -4.80564971 3.79765901 -10.5625 7.1875 C-12.24959495 10.48833795 -12.7115001 13.32162627 -13 17 C-14.32 16.67 -15.64 16.34 -17 16 C-17 15.34 -17 14.68 -17 14 C-17.66 13.67 -18.32 13.34 -19 13 C-18.0306082 7.61449 -16.4791405 4.50449339 -12.125 1.09375 C-8.18336839 -0.93503098 -4.29804157 -0.48747756 0 0 Z " fill="#EDEDED" transform="translate(104,70)"/>
<path d="M0 0 C2.67611698 0.36911958 3.8431469 0.84855563 5.8125 2.75 C7 5 7 5 7.1875 7.375 C5.33286768 11.47471355 1.9637057 13.95489653 -2 16 C-4.765625 16.16796875 -4.765625 16.16796875 -7 16 C-7.7109375 14.28515625 -7.7109375 14.28515625 -8 12 C-6.6015625 9.74609375 -6.6015625 9.74609375 -4.625 7.4375 C-2.42654602 4.8405215 -1.08428885 3.25286654 0 0 Z " fill="#E0E0E0" transform="translate(158,80)"/>
<path d="M0 0 C2.0625 0.4375 2.0625 0.4375 4 1 C3.67 1.99 3.34 2.98 3 4 C2.32811503 6.33183607 1.66084583 8.66501142 1 11 C-7.72630608 11.09744014 -16.33003296 11.16711095 -25 10 C-25 10.66 -25 11.32 -25 12 C-27.31 11.67 -29.62 11.34 -32 11 C-32 10.67 -32 10.34 -32 10 C-30.15148437 9.90525391 -30.15148437 9.90525391 -28.265625 9.80859375 C-17.60998484 9.08349306 -7.98543784 7.98543784 0 0 Z " fill="#B2B2B2" transform="translate(61,77)"/>
<path d="M0 0 C0.99 0.66 1.98 1.32 3 2 C2.71601983 8.67353409 -0.07805532 12.71077185 -4 18 C-4.66 17.67 -5.32 17.34 -6 17 C-4.7934375 15.453125 -4.7934375 15.453125 -3.5625 13.875 C-1.22200704 10.62872304 -0.29641289 8.05097617 0 4 C-6.42431979 5.6007854 -6.42431979 5.6007854 -11 9.8125 C-11.33 10.534375 -11.66 11.25625 -12 12 C-12.680625 12.78375 -13.36125 13.5675 -14.0625 14.375 C-16.24394277 17.33050311 -16.66369691 19.38474176 -17 23 C-17.66 22.67 -18.32 22.34 -19 22 C-19.34986966 17.8015641 -18.60104849 16.22530013 -16 13 C-15.7834375 12.01 -15.7834375 12.01 -15.5625 11 C-14.78077296 8.22052609 -13.10569305 6.9019163 -11 5 C-11.66 4.67 -12.32 4.34 -13 4 C-8.68124837 0.57478319 -5.53230711 -0.34576919 0 0 Z " fill="#C8C8C8" transform="translate(204,31)"/>
<path d="M0 0 C-1.58103226 6.18039882 -4.50780525 9.21986089 -9.625 12.875 C-12 14 -12 14 -15 13 C-15.34751969 10.08083462 -15.53280018 7.86804524 -13.95703125 5.30078125 C-9.35033778 -0.27858651 -6.83564749 -0.11025238 0 0 Z " fill="#131313" transform="translate(106,73)"/>
<path d="M0 0 C0.66 0.33 1.32 0.66 2 1 C1.278125 1.61875 0.55625 2.2375 -0.1875 2.875 C-2.28599751 5.75537428 -2.28599751 5.75537428 -1.66796875 8.41796875 C0.13356038 14.42602403 1.64089753 19.42726502 7 23 C1.00848933 24.55779277 1.00848933 24.55779277 -1.765625 23.0234375 C-5.50814699 19.9167809 -6.85783375 18.17794892 -7.4375 13.375 C-7.41675891 7.70231231 -3.85895858 3.85895858 0 0 Z " fill="#E1E1E1" transform="translate(15,70)"/>
<path d="M0 0 C1.16144531 0.00902344 2.32289062 0.01804688 3.51953125 0.02734375 C4.39996094 0.03894531 5.28039062 0.05054688 6.1875 0.0625 C6.1875 0.7225 6.1875 1.3825 6.1875 2.0625 C4.917947 2.71084654 3.64680294 3.35607815 2.375 4 C1.66730469 4.35964844 0.95960937 4.71929687 0.23046875 5.08984375 C-3.21416479 6.7298318 -5.97602772 7.22162427 -9.75 7.25 C-10.60464844 7.26417969 -11.45929687 7.27835938 -12.33984375 7.29296875 C-14.95159303 7.04953556 -16.56750652 6.3803268 -18.8125 5.0625 C-12.27078408 1.08616287 -7.75523686 -0.07833573 0 0 Z " fill="#090909" transform="translate(44.8125,36.9375)"/>
<path d="M0 0 C0.99 0 1.98 0 3 0 C1.24837335 13.91348896 -12.47425071 23.78712271 -22 33 C-22.66 32.67 -23.32 32.34 -24 32 C-23.2265625 31.16597656 -22.453125 30.33195312 -21.65625 29.47265625 C-19.49332186 27.13887906 -17.33863457 24.797773 -15.1875 22.453125 C-13.3356939 20.43676267 -11.46800826 18.45095725 -9.5625 16.484375 C-4.77189771 11.43972562 -2.10536103 6.63465746 0 0 Z " fill="#E2E2E2" transform="translate(150,40)"/>
<path d="M0 0 C0.99 0.66 1.98 1.32 3 2 C2.01 2.66 1.02 3.32 0 4 C-1.07136051 6.30144109 -2.07989717 8.6340213 -3 11 C-1.35 10.67 0.3 10.34 2 10 C0 12 0 12 -3 13 C-4.22969878 16.51190809 -4.22969878 16.51190809 -5 20 C-5.99 19.34 -6.98 18.68 -8 18 C-7.67 16.02 -7.34 14.04 -7 12 C-7.515625 12.33 -8.03125 12.66 -8.5625 13 C-11.78026512 14.32010877 -14.5570528 14.13242105 -18 14 C-15 12 -15 12 -12.125 11.1875 C-6.98875369 9.2357264 -4.26556908 5.87968726 -2 1 C-1.34 0.67 -0.68 0.34 0 0 Z " fill="#C9C9C9" transform="translate(107,74)"/>
<path d="M0 0 C5.41110091 1.31978071 9.26441506 3.93285427 13 8 C13 8.66 13 9.32 13 10 C13.66 10 14.32 10 15 10 C14.67 11.32 14.34 12.64 14 14 C8.57558638 13.56604691 5.23941629 12.45068767 1 9 C-0.375 6.75 -0.375 6.75 -1 5 C1.0362449 6.01812245 3.06360955 7.03469612 5.0625 8.125 C7.10136548 9.20579336 7.10136548 9.20579336 10 9 C9.67 8.01 9.34 7.02 9 6 C6.75256244 4.84979475 6.75256244 4.84979475 4 4 C2.906875 3.62875 1.81375 3.2575 0.6875 2.875 C-0.199375 2.58625 -1.08625 2.2975 -2 2 C-1.34 1.34 -0.68 0.68 0 0 Z " fill="#E1E1E1" transform="translate(102,98)"/>
<path d="M0 0 C3.3125 0.9375 3.3125 0.9375 6.3125 2.9375 C5.9825 4.2575 5.6525 5.5775 5.3125 6.9375 C4.9825 5.9475 4.6525 4.9575 4.3125 3.9375 C1.59876162 4.91746108 -0.50376178 5.78716873 -2.75 7.625 C-4.6875 8.9375 -4.6875 8.9375 -6.875 8.8125 C-7.7721875 8.379375 -7.7721875 8.379375 -8.6875 7.9375 C-9.0175 6.9475 -9.3475 5.9575 -9.6875 4.9375 C-4.67083333 -0.07916667 -4.67083333 -0.07916667 0 0 Z " fill="#BEBEBE" transform="translate(195.6875,91.0625)"/>
<path d="M0 0 C3.875 0.875 3.875 0.875 5 2 C9.54950416 2.26247139 12.88439805 1.99544337 17 0 C16.34 2.97 15.68 5.94 15 9 C12.9890625 8.2884375 12.9890625 8.2884375 10.9375 7.5625 C6.93389034 6.21951701 3.19193595 5.44595063 -1 5 C-1.33 4.01 -1.66 3.02 -2 2 C-1.34 2 -0.68 2 0 2 C0 1.34 0 0.68 0 0 Z " fill="#2D2D2D" transform="translate(84,85)"/>
<path d="M0 0 C0 0.99 0 1.98 0 3 C-0.99 3.33 -1.98 3.66 -3 4 C-3.40863281 5.09441406 -3.81726563 6.18882813 -4.23828125 7.31640625 C-5.7371008 11.14216027 -7.59418286 12.38439289 -11.24023438 14.10351562 C-12.20413086 14.51633789 -12.20413086 14.51633789 -13.1875 14.9375 C-13.84169922 15.23978516 -14.49589844 15.54207031 -15.16992188 15.85351562 C-16.7706348 16.58960989 -18.38415801 17.29773842 -20 18 C-20.66 17.34 -21.32 16.68 -22 16 C-21.39671875 15.73445313 -20.7934375 15.46890625 -20.171875 15.1953125 C-19.37265625 14.84210938 -18.5734375 14.48890625 -17.75 14.125 C-16.56664062 13.60292969 -16.56664062 13.60292969 -15.359375 13.0703125 C-13.21131392 12.09586095 -11.10170798 11.07013571 -9 10 C-9.0825 8.906875 -9.165 7.81375 -9.25 6.6875 C-9 3 -9 3 -7.3125 1.0625 C-4.67742863 -0.14820847 -2.86784522 -0.2389871 0 0 Z " fill="#DEDEDE" transform="translate(163,73)"/>
<path d="M0 0 C0.66 0.33 1.32 0.66 2 1 C1.67 2.32 1.34 3.64 1 5 C0.34 5 -0.32 5 -1 5 C-1 8.3 -1 11.6 -1 15 C-2.32 14.67 -3.64 14.34 -5 14 C-7.18703385 14.37907282 -7.18703385 14.37907282 -9 15 C-9 14.01 -9 13.02 -9 12 C-8.34 12 -7.68 12 -7 12 C-7 11.34 -7 10.68 -7 10 C-6.34 10 -5.68 10 -5 10 C-5 9.67 -5 9.34 -5 9 C-6.32 8.67 -7.64 8.34 -9 8 C-6.03 5.36 -3.06 2.72 0 0 Z " fill="#1D1D1D" transform="translate(132,68)"/>
<path d="M0 0 C0.33 0.66 0.66 1.32 1 2 C2.65 1.34 4.3 0.68 6 0 C5.77139942 1.46184058 5.51629608 2.91955419 5.25 4.375 C5.11078125 5.18710938 4.9715625 5.99921875 4.828125 6.8359375 C4 9 4 9 2.171875 10.2890625 C0 11 0 11 -4 11 C-3.71890887 9.35232753 -3.42481474 7.70686855 -3.125 6.0625 C-2.96257812 5.14597656 -2.80015625 4.22945313 -2.6328125 3.28515625 C-2.42398438 2.53105469 -2.21515625 1.77695313 -2 1 C-1.34 0.67 -0.68 0.34 0 0 Z " fill="#0F0F0F" transform="translate(82,74)"/>
<path d="M0 0 C0.99 0.33 1.98 0.66 3 1 C-2.75 6 -2.75 6 -5 6 C-5.061875 6.5775 -5.12375 7.155 -5.1875 7.75 C-6.3176876 10.87975028 -8.41017692 11.96513901 -11 14 C-12.03357147 15.64605826 -13.04060332 17.30963442 -14 19 C-14.66 19.33 -15.32 19.66 -16 20 C-15.34 18.35 -14.68 16.7 -14 15 C-15.32 15.99 -16.64 16.98 -18 18 C-16.75023244 14.34683329 -16.32901247 13.21934164 -13 11 C-12.38125 10.7525 -11.7625 10.505 -11.125 10.25 C-8.04115325 8.4359725 -6.24887368 5.75487026 -4 3 C-1.875 1.0625 -1.875 1.0625 0 0 Z " fill="#111111" transform="translate(139,41)"/>
<path d="M0 0 C0 0.33 0 0.66 0 1 C-0.59425781 1.05534912 -1.18851563 1.11069824 -1.80078125 1.16772461 C-4.53397589 1.42303177 -7.26698721 1.6802538 -10 1.9375 C-11.40185547 2.06801758 -11.40185547 2.06801758 -12.83203125 2.20117188 C-14.21455078 2.33168945 -14.21455078 2.33168945 -15.625 2.46484375 C-16.53507812 2.54976074 -17.44515625 2.63467773 -18.3828125 2.72216797 C-20.7716863 2.97576297 -23.12689446 3.32251004 -25.5 3.69140625 C-29 4 -29 4 -32 2 C-20.92839527 -0.45063188 -11.27823003 -1.64046982 0 0 Z " fill="#C5C5C5" transform="translate(62,95)"/>
<path d="M0 0 C0.33 0.99 0.66 1.98 1 3 C-0.50240234 3.05607422 -0.50240234 3.05607422 -2.03515625 3.11328125 C-11.88399463 3.51510949 -11.88399463 3.51510949 -21 7 C-21 6.01 -21 5.02 -21 4 C-19.27255984 3.34956281 -17.5429631 2.70485156 -15.8125 2.0625 C-14.84957031 1.70285156 -13.88664063 1.34320313 -12.89453125 0.97265625 C-8.1710843 -0.61457491 -4.86859249 -1.25192378 0 0 Z " fill="#131313" transform="translate(212,85)"/>
<path d="M0 0 C1.28132812 0.00902344 2.56265625 0.01804687 3.8828125 0.02734375 C4.87023437 0.03894531 5.85765625 0.05054687 6.875 0.0625 C5.885 0.3925 4.895 0.7225 3.875 1.0625 C3.875 2.3825 3.875 3.7025 3.875 5.0625 C3.16988281 4.89878906 2.46476563 4.73507813 1.73828125 4.56640625 C-1.22158688 4.04550176 -3.93561273 3.96383268 -6.9375 4 C-7.91332031 4.00902344 -8.88914063 4.01804687 -9.89453125 4.02734375 C-10.63058594 4.03894531 -11.36664063 4.05054687 -12.125 4.0625 C-8.15658198 -0.08630066 -5.7503409 -0.05227583 0 0 Z " fill="#E1E1E1" transform="translate(205.125,87.9375)"/>
<path d="M0 0 C8.23992322 -0.621881 8.23992322 -0.621881 11.0625 1.6875 C12.13305889 4.32821192 12.30531344 6.17585068 12 9 C11 10 11 10 7.9375 10.0625 C6.968125 10.041875 5.99875 10.02125 5 10 C4.67 9.34 4.34 8.68 4 8 C5 6 5 6 8 5 C8 4.34 8 3.68 8 3 C5.36 2.34 2.72 1.68 0 1 C0 0.67 0 0.34 0 0 Z " fill="#F5F5F5" transform="translate(204,83)"/>
<path d="M0 0 C1.32 0 2.64 0 4 0 C4 2.31 4 4.62 4 7 C-1.75 9 -1.75 9 -4 9 C-2.25 2.25 -2.25 2.25 0 0 Z " fill="#4A4A4A" transform="translate(108,76)"/>
<path d="M0 0 C4.36903809 0.50802768 7.45698737 1.34274053 11 4 C12.3125 6.1875 12.3125 6.1875 13 8 C8.66007396 7.50682659 6.41856446 6.62089942 3 4 C1.68 4 0.36 4 -1 4 C-0.67 2.68 -0.34 1.36 0 0 Z " fill="#080808" transform="translate(100,100)"/>
<path d="M0 0 C0.66 0 1.32 0 2 0 C2.45375 1.0725 2.9075 2.145 3.375 3.25 C5.55429306 8.52807908 5.55429306 8.52807908 9 13 C3.62686567 12.52238806 3.62686567 12.52238806 1.125 10.4375 C-0.52772156 6.85660328 -0.19618208 3.92364165 0 0 Z " fill="#121212" transform="translate(11,79)"/>
<path d="M0 0 C1 2 1 2 0 7 C-3.96 7 -7.92 7 -12 7 C-9.47764868 5.31843245 -6.96413358 3.83531994 -4.3125 2.375 C-3.50425781 1.92898437 -2.69601563 1.48296875 -1.86328125 1.0234375 C-1.24839844 0.68570313 -0.63351563 0.34796875 0 0 Z " fill="#111111" transform="translate(63,79)"/>
<path d="M0 0 C0.99 0.33 1.98 0.66 3 1 C2.6875 3.375 2.6875 3.375 2 6 C-1.22791555 8.1519437 -2.28400809 8.20086443 -6 8 C-4.26440562 4.942048 -2.61527381 2.36620011 0 0 Z " fill="#0C0C0C" transform="translate(157,86)"/>
<path d="M0 0 C0 0.33 0 0.66 0 1 C-1.30324219 1.39832031 -1.30324219 1.39832031 -2.6328125 1.8046875 C-3.78523438 2.15789062 -4.93765625 2.51109375 -6.125 2.875 C-7.83042969 3.39707031 -7.83042969 3.39707031 -9.5703125 3.9296875 C-12.72751664 4.91496533 -15.86627606 5.94272536 -19 7 C-19.66 6.34 -20.32 5.68 -21 5 C-18.63170965 3.96048324 -16.25746106 2.94357672 -13.875 1.9375 C-13.20984375 1.64294922 -12.5446875 1.34839844 -11.859375 1.04492188 C-7.50400582 -0.76981528 -4.71418176 -1.28501839 0 0 Z " fill="#C9C9C9" transform="translate(207,84)"/>
<path d="M0 0 C1.32 0.66 2.64 1.32 4 2 C2.768606 5.69418201 0.79208646 7.35109746 -2 10 C-2.66 9.67 -3.32 9.34 -4 9 C-3.46930939 5.17902761 -2.50298434 2.93828597 0 0 Z M-6 5 C-5.01 5.495 -5.01 5.495 -4 6 C-4.99 6.495 -4.99 6.495 -6 7 C-6 6.34 -6 5.68 -6 5 Z " fill="#CACACA" transform="translate(74,64)"/>
<path d="M0 0 C0.99 1.32 1.98 2.64 3 4 C1.625 6.5 1.625 6.5 0 9 C-0.66 9 -1.32 9 -2 9 C-2.66 10.32 -3.32 11.64 -4 13 C-5.0169313 10.34501768 -5.13022151 9.30844625 -4.00390625 6.640625 C-3.52824219 5.85171875 -3.05257812 5.0628125 -2.5625 4.25 C-2.08941406 3.45078125 -1.61632812 2.6515625 -1.12890625 1.828125 C-0.75636719 1.22484375 -0.38382813 0.6215625 0 0 Z " fill="#8D8D8D" transform="translate(182,45)"/>
<path d="M0 0 C0.66 0 1.32 0 2 0 C2.33 0.99 2.66 1.98 3 3 C1.8203125 4.61328125 1.8203125 4.61328125 0.125 6.3125 C-2.75434205 9.44511751 -3.78756201 11.64502115 -4 16 C-4.66 15.67 -5.32 15.34 -6 15 C-6.34986966 10.8015641 -5.60104849 9.22530013 -3 6 C-2.64830932 4.67139075 -2.31229724 3.33841672 -2 2 C-1.34 1.34 -0.68 0.68 0 0 Z " fill="#B7B7B7" transform="translate(191,38)"/>
<path d="M0 0 C0.33 0.99 0.66 1.98 1 3 C0.67 3.66 0.34 4.32 0 5 C1.65 5 3.3 5 5 5 C5 5.99 5 6.98 5 8 C3.02 8.66 1.04 9.32 -1 10 C-2 9 -2 9 -2.1875 6.125 C-2 3 -2 3 0 0 Z " fill="#040404" transform="translate(93,77)"/>
<path d="M0 0 C-1.1875 2.4375 -1.1875 2.4375 -3 5 C-5.6875 5.8125 -5.6875 5.8125 -8 6 C-8 4.68 -8 3.36 -8 2 C-3.82258065 -1.27419355 -3.82258065 -1.27419355 0 0 Z " fill="#E9E9E9" transform="translate(196,94)"/>
<path d="M0 0 C0.99 0.33 1.98 0.66 3 1 C2.94140625 2.765625 2.94140625 2.765625 2 5 C-0.36191901 6.43642046 -2.56538837 7.61250829 -5.0625 8.75 C-6.05733398 9.22373047 -6.05733398 9.22373047 -7.07226562 9.70703125 C-8.70884642 10.48411278 -10.35368595 11.24375767 -12 12 C-12.66 11.34 -13.32 10.68 -14 10 C-13.39671875 9.73445313 -12.7934375 9.46890625 -12.171875 9.1953125 C-11.37265625 8.84210938 -10.5734375 8.48890625 -9.75 8.125 C-8.96109375 7.77695313 -8.1721875 7.42890625 -7.359375 7.0703125 C-6.58078125 6.71710938 -5.8021875 6.36390625 -5 6 C-4.2575 5.67 -3.515 5.34 -2.75 5 C-0.78571015 4.1304373 -0.78571015 4.1304373 -0.25 1.875 C-0.1675 1.25625 -0.085 0.6375 0 0 Z " fill="#C0C0C0" transform="translate(155,79)"/>
<path d="M0 0 C0 0.99 0 1.98 0 3 C-4 4.33333333 -8 5.66666667 -12 7 C-11.5 4.6875 -11.5 4.6875 -10 2 C-3.40518962 -1.70259481 -3.40518962 -1.70259481 0 0 Z " fill="#DADADA" transform="translate(38,35)"/>
<path d="M0 0 C5.59282842 1.36410449 8.91193811 4.15383526 13 8 C12.67 8.99 12.34 9.98 12 11 C11.34 10.67 10.68 10.34 10 10 C9.896875 9.360625 9.79375 8.72125 9.6875 8.0625 C9.19258377 5.77678361 9.19258377 5.77678361 6.8125 4.875 C5.4203125 4.441875 5.4203125 4.441875 4 4 C2.906875 3.62875 1.81375 3.2575 0.6875 2.875 C-0.199375 2.58625 -1.08625 2.2975 -2 2 C-1.34 1.34 -0.68 0.68 0 0 Z " fill="#CFCFCF" transform="translate(102,98)"/>
<path d="M0 0 C0.33 0 0.66 0 1 0 C1.42317708 2.01822917 1.84635417 4.03645833 2.26953125 6.0546875 C2.92308838 8.37046549 2.92308838 8.37046549 6 10 C7.9896995 10.39013716 9.99019869 10.73202649 12 11 C9.89886305 12.27569029 8.54926564 13.03543649 6.0625 12.875 C3.0398408 11.59265973 1.21424569 10.46730234 -1 8 C-1.13195238 5.1245378 -0.61793597 2.85201219 0 0 Z " fill="#BFBFBF" transform="translate(10,81)"/>
<path d="M0 0 C2.125 0.9375 2.125 0.9375 4 2 C2.1875 5 2.1875 5 0 8 C-0.99 8 -1.98 8 -3 8 C-2.74438677 5.6568787 -2.40729228 3.32156597 -2 1 C-1.34 0.67 -0.68 0.34 0 0 Z " fill="#171717" transform="translate(135,74)"/>
<path d="M0 0 C0.66 0.33 1.32 0.66 2 1 C1.34 2.32 0.68 3.64 0 5 C-0.66 4.67 -1.32 4.34 -2 4 C-2 5.32 -2 6.64 -2 8 C-2.99 8.33 -3.98 8.66 -5 9 C-5.66 8.34 -6.32 7.68 -7 7 C-7.99 7.495 -7.99 7.495 -9 8 C-8 5 -8 5 -5 3 C-2.3125 2.875 -2.3125 2.875 0 3 C0 2.01 0 1.02 0 0 Z " fill="#0D0D0D" transform="translate(127,74)"/>
<path d="M0 0 C0.66 0.33 1.32 0.66 2 1 C1.34 2.65 0.68 4.3 0 6 C-6.15234375 5.4140625 -6.15234375 5.4140625 -8 5 C-8.33 4.34 -8.66 3.68 -9 3 C-8.43410156 2.86722656 -7.86820312 2.73445313 -7.28515625 2.59765625 C-6.18494141 2.33275391 -6.18494141 2.33275391 -5.0625 2.0625 C-4.33160156 1.88847656 -3.60070312 1.71445313 -2.84765625 1.53515625 C-1.00030102 1.16112431 -1.00030102 1.16112431 0 0 Z " fill="#040404" transform="translate(99,85)"/>
<path d="M0 0 C0.99 0.33 1.98 0.66 3 1 C-2.75 6 -2.75 6 -5 6 C-5.12375 6.639375 -5.2475 7.27875 -5.375 7.9375 C-5.58125 8.618125 -5.7875 9.29875 -6 10 C-6.99 10.495 -6.99 10.495 -8 11 C-7.91601729 8.14458787 -7.39043615 6.43760967 -5.48046875 4.296875 C-2.00244352 1.16299122 -2.00244352 1.16299122 0 0 Z " fill="#6B6B6B" transform="translate(139,41)"/>
<path d="M0 0 C2.125 0.375 2.125 0.375 4 1 C2.75023244 4.65316671 2.32901247 5.78065836 -1 8 C-2 7 -2 7 -2.1875 4.5625 C-2 2 -2 2 0 0 Z " fill="#303030" transform="translate(185,41)"/>
<path d="M0 0 C-0.33 1.98 -0.66 3.96 -1 6 C-2.32 5.67 -3.64 5.34 -5 5 C-5.33 3.35 -5.66 1.7 -6 0 C-3.50907189 -1.24546405 -2.58919267 -0.7767578 0 0 Z " fill="#1A1A1A" transform="translate(151,75)"/>
<path d="M0 0 C3.35435922 1.38801071 5.11290303 2.88629 7 6 C7 6.99 7 7.98 7 9 C3.64564078 7.61198929 1.88709697 6.11371 0 3 C0 2.01 0 1.02 0 0 Z " fill="#757575" transform="translate(30,107)"/>
<path d="M0 0 C0.33 0.99 0.66 1.98 1 3 C3.01508358 3.73323796 3.01508358 3.73323796 5 4 C5.33 3.34 5.66 2.68 6 2 C6.66 1.67 7.32 1.34 8 1 C7.67 2.65 7.34 4.3 7 6 C1.25 6.125 1.25 6.125 -1 5 C-0.67 3.35 -0.34 1.7 0 0 Z " fill="#1E1E1E" transform="translate(94,77)"/>
<path d="M0 0 C0 3.93974955 -1.47789475 5.82936093 -3.5 9.1875 C-4.47453125 10.81751953 -4.47453125 10.81751953 -5.46875 12.48046875 C-6.22671875 13.72763672 -6.22671875 13.72763672 -7 15 C-8 13 -8 13 -7.4375 10.875 C-5.43821105 6.87642209 -2.76209916 3.50039611 0 0 Z " fill="#AEAEAE" transform="translate(130,52)"/>
<path d="M0 0 C0.33 0.66 0.66 1.32 1 2 C0.01 3.485 0.01 3.485 -1 5 C-1.39013716 6.9896995 -1.73202649 8.99019869 -2 11 C-3.5625 9.8125 -3.5625 9.8125 -5 8 C-4.9375 5.5 -4.9375 5.5 -4 3 C-1.9375 1.1875 -1.9375 1.1875 0 0 Z " fill="#262626" transform="translate(75,73)"/>
<path d="M0 0 C0 3 0 3 -1.96875 5.26171875 C-2.8040625 6.06222656 -3.639375 6.86273438 -4.5 7.6875 C-5.3353125 8.49574219 -6.170625 9.30398437 -7.03125 10.13671875 C-7.6809375 10.75160156 -8.330625 11.36648437 -9 12 C-9.66 11.67 -10.32 11.34 -11 11 C-11 10.34 -11 9.68 -11 9 C-9.948125 8.38125 -9.948125 8.38125 -8.875 7.75 C-5.30864939 5.57917789 -2.88111201 3.01511722 0 0 Z " fill="#9C9C9C" transform="translate(192,54)"/>
<path d="M0 0 C0.99 0.66 1.98 1.32 3 2 C2.67 3.98 2.34 5.96 2 8 C0.68 8 -0.64 8 -2 8 C-2 6.68 -2 5.36 -2 4 C-1.01 3.67 -0.02 3.34 1 3 C0.67 2.01 0.34 1.02 0 0 Z " fill="#C9C9C9" transform="translate(146,62)"/>
<path d="M0 0 C0.33 1.32 0.66 2.64 1 4 C-3.75 7 -3.75 7 -6 7 C-5.34 5.68 -4.68 4.36 -4 3 C-3.67 3.33 -3.34 3.66 -3 4 C-2.67 3.01 -2.34 2.02 -2 1 C-1.34 0.67 -0.68 0.34 0 0 Z " fill="#090909" transform="translate(110,78)"/>
<path d="M0 0 C0.33 0 0.66 0 1 0 C1 2.31 1 4.62 1 7 C-0.98 7.33 -2.96 7.66 -5 8 C-5 7.01 -5 6.02 -5 5 C-4.34 5 -3.68 5 -3 5 C-3 4.34 -3 3.68 -3 3 C-2.34 3 -1.68 3 -1 3 C-0.67 2.01 -0.34 1.02 0 0 Z " fill="#171717" transform="translate(128,75)"/>
<path d="M0 0 C1.32 0 2.64 0 4 0 C4 0.66 4 1.32 4 2 C5.65 2 7.3 2 9 2 C9 2.33 9 2.66 9 3 C5.37 3 1.74 3 -2 3 C-1.34 2.67 -0.68 2.34 0 2 C0 1.34 0 0.68 0 0 Z " fill="#A0A0A0" transform="translate(60,128)"/>
<path d="M0 0 C2.64 0 5.28 0 8 0 C5.23776722 2.76223278 2.79293383 2.57856291 -1 3 C-0.67 2.01 -0.34 1.02 0 0 Z " fill="#F7F7F7" transform="translate(38,87)"/>
<path d="M0 0 C0.66 0 1.32 0 2 0 C0.55746343 3.36591866 -1.33264727 5.51047079 -4 8 C-4.66 7.67 -5.32 7.34 -6 7 C-5.04882866 5.8274869 -4.08882991 4.66212985 -3.125 3.5 C-2.59132812 2.8503125 -2.05765625 2.200625 -1.5078125 1.53125 C-0.76144531 0.77328125 -0.76144531 0.77328125 0 0 Z " fill="#CECECE" transform="translate(132,65)"/>
<path d="M0 0 C-1.39332574 3.36720387 -2.9789286 4.9859524 -6 7 C-6 4 -6 4 -4.125 1.8125 C-2 0 -2 0 0 0 Z " fill="#DADADA" transform="translate(140,59)"/>
<path d="M0 0 C0.99 0.33 1.98 0.66 3 1 C2.67 3.31 2.34 5.62 2 8 C1.01 7.34 0.02 6.68 -1 6 C-0.67 4.02 -0.34 2.04 0 0 Z " fill="#D2D2D2" transform="translate(100,86)"/>
<path d="M0 0 C0.33 0 0.66 0 1 0 C0.25 6.75 0.25 6.75 -2 9 C-3 6 -3 6 -1.5625 2.8125 C-1.046875 1.884375 -0.53125 0.95625 0 0 Z " fill="#C4C4C4" transform="translate(177,55)"/>
</svg>
