<?xml version="1.0" encoding="UTF-8"?>
<svg version="1.1" xmlns="http://www.w3.org/2000/svg" width="150" height="87">
<path d="M0 0 C49.5 0 99 0 150 0 C150 28.71 150 57.42 150 87 C100.5 87 51 87 0 87 C0 58.29 0 29.58 0 0 Z " fill="#02392E" transform="translate(0,0)"/>
<path d="M0 0 C1.71431445 0.00147405 3.42862935 0.0024919 5.14294434 0.00305176 C11.43254276 0.00825105 17.72213149 0.02221212 24.01171875 0.03515625 C45.14203125 0.06609375 45.14203125 0.06609375 66.69921875 0.09765625 C66.69921875 28.80765625 66.69921875 57.51765625 66.69921875 87.09765625 C44.91921875 87.09765625 23.13921875 87.09765625 0.69921875 87.09765625 C0.69921875 83.79765625 0.69921875 80.49765625 0.69921875 77.09765625 C1.35921875 77.09765625 2.01921875 77.09765625 2.69921875 77.09765625 C2.69921875 76.43765625 2.69921875 75.77765625 2.69921875 75.09765625 C-1.59078125 75.09765625 -5.88078125 75.09765625 -10.30078125 75.09765625 C-10.30078125 74.76765625 -10.30078125 74.43765625 -10.30078125 74.09765625 C-3.86578125 73.10765625 -3.86578125 73.10765625 2.69921875 72.09765625 C2.69921875 71.10765625 2.69921875 70.11765625 2.69921875 69.09765625 C5.00921875 69.09765625 7.31921875 69.09765625 9.69921875 69.09765625 C8.70921875 68.76765625 7.71921875 68.43765625 6.69921875 68.09765625 C6.69921875 67.10765625 6.69921875 66.11765625 6.69921875 65.09765625 C7.68921875 65.09765625 8.67921875 65.09765625 9.69921875 65.09765625 C10.80462801 62.30847476 10.80462801 62.30847476 10.69921875 60.09765625 C13.17421875 59.60265625 13.17421875 59.60265625 15.69921875 59.09765625 C16.15296875 59.75765625 16.60671875 60.41765625 17.07421875 61.09765625 C17.61046875 61.75765625 18.14671875 62.41765625 18.69921875 63.09765625 C19.35921875 63.09765625 20.01921875 63.09765625 20.69921875 63.09765625 C21.19421875 62.10765625 21.19421875 62.10765625 21.69921875 61.09765625 C21.03921875 61.09765625 20.37921875 61.09765625 19.69921875 61.09765625 C18.85467519 57.719482 18.59076956 55.42300382 19.69921875 52.09765625 C18.37921875 52.09765625 17.05921875 52.09765625 15.69921875 52.09765625 C15.36921875 53.41765625 15.03921875 54.73765625 14.69921875 56.09765625 C11.82421875 56.22265625 11.82421875 56.22265625 8.69921875 56.09765625 C6.69921875 54.09765625 6.69921875 54.09765625 6.44921875 51.09765625 C6.69921875 48.09765625 6.69921875 48.09765625 8.69921875 46.09765625 C10.86328125 45.90234375 10.86328125 45.90234375 13.32421875 45.97265625 C14.14148438 45.99070313 14.95875 46.00875 15.80078125 46.02734375 C16.42726562 46.05054688 17.05375 46.07375 17.69921875 46.09765625 C17.69921875 43.45765625 17.69921875 40.81765625 17.69921875 38.09765625 C19.67921875 38.09765625 21.65921875 38.09765625 23.69921875 38.09765625 C23.69921875 37.10765625 23.69921875 36.11765625 23.69921875 35.09765625 C22.77109375 35.24203125 21.84296875 35.38640625 20.88671875 35.53515625 C15.85748294 35.58626637 12.41155578 32.62188818 8.4453125 29.82421875 C3.56754178 26.75739847 -0.76817353 25.81865697 -6.48828125 25.84765625 C-7.51308594 25.8425 -8.53789063 25.83734375 -9.59375 25.83203125 C-12.52163364 25.9048726 -12.52163364 25.9048726 -15.30078125 28.09765625 C-16.03684624 31.66535177 -16.03684624 31.66535177 -16.30078125 35.09765625 C-20.37999296 35.80708437 -22.36983033 35.62181629 -26.02734375 33.5625 C-33.03479087 28.44015485 -33.03479087 28.44015485 -33.71484375 25.0078125 C-33.42578125 23.09765625 -33.42578125 23.09765625 -32.30078125 20.09765625 C-29.33078125 19.76765625 -26.36078125 19.43765625 -23.30078125 19.09765625 C-23.63078125 17.77765625 -23.96078125 16.45765625 -24.30078125 15.09765625 C-25.08453125 15.13890625 -25.86828125 15.18015625 -26.67578125 15.22265625 C-29.30078125 15.09765625 -29.30078125 15.09765625 -31.30078125 13.09765625 C-31.48828125 10.03515625 -31.48828125 10.03515625 -31.30078125 7.09765625 C-30.30078125 6.09765625 -30.30078125 6.09765625 -27.73828125 6.03515625 C-26.53171875 6.06609375 -26.53171875 6.06609375 -25.30078125 6.09765625 C-25.30078125 5.10765625 -25.30078125 4.11765625 -25.30078125 3.09765625 C-27.94078125 3.09765625 -30.58078125 3.09765625 -33.30078125 3.09765625 C-33.30078125 2.43765625 -33.30078125 1.77765625 -33.30078125 1.09765625 C-22.19100027 -0.0253791 -11.15383544 -0.03232454 0 0 Z " fill="#033A2F" transform="translate(83.30078125,-0.09765625)"/>
<path d="M0 0 C4.76687496 1.79579057 8.56374818 4.12754993 12.56640625 7.234375 C15.3627552 8.97229281 17.9903698 9.07458578 21.23828125 9.2734375 C21.23828125 10.2634375 21.23828125 11.2534375 21.23828125 12.2734375 C19.25828125 12.2734375 17.27828125 12.2734375 15.23828125 12.2734375 C15.23828125 14.9134375 15.23828125 17.5534375 15.23828125 20.2734375 C14.60019531 20.33402344 13.96210937 20.39460938 13.3046875 20.45703125 C12.06525391 20.58271484 12.06525391 20.58271484 10.80078125 20.7109375 C9.56521484 20.83275391 9.56521484 20.83275391 8.3046875 20.95703125 C6.251661 21.06274565 6.251661 21.06274565 5.23828125 22.2734375 C5.19747342 24.27302114 5.19573769 26.27389004 5.23828125 28.2734375 C7.54828125 28.9334375 9.85828125 29.5934375 12.23828125 30.2734375 C12.56828125 28.6234375 12.89828125 26.9734375 13.23828125 25.2734375 C14.55828125 25.2734375 15.87828125 25.2734375 17.23828125 25.2734375 C18.22916192 28.35617735 18.16310658 30.19068641 17.23828125 33.2734375 C17.23828125 33.9334375 17.23828125 34.5934375 17.23828125 35.2734375 C17.89828125 35.2734375 18.55828125 35.2734375 19.23828125 35.2734375 C18.90828125 36.2634375 18.57828125 37.2534375 18.23828125 38.2734375 C15.77028078 37.12170395 14.1904456 36.22560185 12.23828125 34.2734375 C10.75328125 34.7684375 10.75328125 34.7684375 9.23828125 35.2734375 C9.56828125 35.9334375 9.89828125 36.5934375 10.23828125 37.2734375 C9.57828125 37.2734375 8.91828125 37.2734375 8.23828125 37.2734375 C7.74328125 38.2634375 7.74328125 38.2634375 7.23828125 39.2734375 C6.24828125 39.2734375 5.25828125 39.2734375 4.23828125 39.2734375 C4.23828125 40.2634375 4.23828125 41.2534375 4.23828125 42.2734375 C4.89828125 42.2734375 5.55828125 42.2734375 6.23828125 42.2734375 C6.73328125 41.2834375 6.73328125 41.2834375 7.23828125 40.2734375 C7.23828125 41.2634375 7.23828125 42.2534375 7.23828125 43.2734375 C4.92828125 43.2734375 2.61828125 43.2734375 0.23828125 43.2734375 C0.56828125 44.2634375 0.89828125 45.2534375 1.23828125 46.2734375 C-0.08171875 46.9334375 -1.40171875 47.5934375 -2.76171875 48.2734375 C-1.77171875 48.6034375 -0.78171875 48.9334375 0.23828125 49.2734375 C0.23828125 49.9334375 0.23828125 50.5934375 0.23828125 51.2734375 C-0.42171875 51.2734375 -1.08171875 51.2734375 -1.76171875 51.2734375 C-1.76171875 54.5734375 -1.76171875 57.8734375 -1.76171875 61.2734375 C-2.42171875 61.2734375 -3.08171875 61.2734375 -3.76171875 61.2734375 C-3.76171875 57.9734375 -3.76171875 54.6734375 -3.76171875 51.2734375 C-5.08171875 51.2734375 -6.40171875 51.2734375 -7.76171875 51.2734375 C-7.76171875 54.2434375 -7.76171875 57.2134375 -7.76171875 60.2734375 C-9.08171875 59.6134375 -10.40171875 58.9534375 -11.76171875 58.2734375 C-11.76171875 57.6134375 -11.76171875 56.9534375 -11.76171875 56.2734375 C-11.10171875 56.2734375 -10.44171875 56.2734375 -9.76171875 56.2734375 C-9.76171875 54.9534375 -9.76171875 53.6334375 -9.76171875 52.2734375 C-11.08171875 52.2734375 -12.40171875 52.2734375 -13.76171875 52.2734375 C-13.76171875 51.6134375 -13.76171875 50.9534375 -13.76171875 50.2734375 C-18.71171875 50.2734375 -23.66171875 50.2734375 -28.76171875 50.2734375 C-28.43171875 49.2834375 -28.10171875 48.2934375 -27.76171875 47.2734375 C-28.42171875 47.2734375 -29.08171875 47.2734375 -29.76171875 47.2734375 C-30.09171875 48.2634375 -30.42171875 49.2534375 -30.76171875 50.2734375 C-30.76171875 48.9534375 -30.76171875 47.6334375 -30.76171875 46.2734375 C-32.08171875 46.2734375 -33.40171875 46.2734375 -34.76171875 46.2734375 C-34.76171875 45.2834375 -34.76171875 44.2934375 -34.76171875 43.2734375 C-35.75171875 43.2734375 -36.74171875 43.2734375 -37.76171875 43.2734375 C-37.74109375 42.5309375 -37.72046875 41.7884375 -37.69921875 41.0234375 C-37.77447496 37.71216408 -38.28419907 35.22847687 -39.76171875 32.2734375 C-39.85944877 29.7410803 -39.90082262 27.24258158 -39.88671875 24.7109375 C-39.89058594 24.01291016 -39.89445312 23.31488281 -39.8984375 22.59570312 C-39.88835869 17.40007744 -39.88835869 17.40007744 -38.76171875 16.2734375 C-36.90884373 16.20117248 -35.05337997 16.1896253 -33.19921875 16.2109375 C-32.18730469 16.21996094 -31.17539062 16.22898437 -30.1328125 16.23828125 C-28.95912109 16.25568359 -28.95912109 16.25568359 -27.76171875 16.2734375 C-27.76171875 14.9534375 -27.76171875 13.6334375 -27.76171875 12.2734375 C-33.70171875 12.2734375 -39.64171875 12.2734375 -45.76171875 12.2734375 C-45.76171875 20.1934375 -45.76171875 28.1134375 -45.76171875 36.2734375 C-46.75171875 36.2734375 -47.74171875 36.2734375 -48.76171875 36.2734375 C-48.76171875 28.3534375 -48.76171875 20.4334375 -48.76171875 12.2734375 C-50.08171875 12.2734375 -51.40171875 12.2734375 -52.76171875 12.2734375 C-52.76171875 11.6134375 -52.76171875 10.9534375 -52.76171875 10.2734375 C-51.44171875 10.2734375 -50.12171875 10.2734375 -48.76171875 10.2734375 C-48.76171875 8.2934375 -48.76171875 6.3134375 -48.76171875 4.2734375 C-46.76171875 8.0234375 -46.76171875 8.0234375 -46.76171875 10.2734375 C-37.52171875 9.9434375 -28.28171875 9.6134375 -18.76171875 9.2734375 C-18.76171875 6.9634375 -18.76171875 4.6534375 -18.76171875 2.2734375 C-14.3023457 -2.89394028 -6.00340001 -1.57939519 0 0 Z " fill="#0B463A" transform="translate(85.76171875,25.7265625)"/>
<path d="M0 0 C4.76687496 1.79579057 8.56374818 4.12754993 12.56640625 7.234375 C15.3627552 8.97229281 17.9903698 9.07458578 21.23828125 9.2734375 C21.23828125 10.2634375 21.23828125 11.2534375 21.23828125 12.2734375 C19.25828125 12.2734375 17.27828125 12.2734375 15.23828125 12.2734375 C15.23828125 14.9134375 15.23828125 17.5534375 15.23828125 20.2734375 C14.60019531 20.33402344 13.96210937 20.39460938 13.3046875 20.45703125 C12.06525391 20.58271484 12.06525391 20.58271484 10.80078125 20.7109375 C9.56521484 20.83275391 9.56521484 20.83275391 8.3046875 20.95703125 C6.251661 21.06274565 6.251661 21.06274565 5.23828125 22.2734375 C5.19747342 24.27302114 5.19573769 26.27389004 5.23828125 28.2734375 C7.54828125 28.9334375 9.85828125 29.5934375 12.23828125 30.2734375 C12.56828125 28.6234375 12.89828125 26.9734375 13.23828125 25.2734375 C14.55828125 25.2734375 15.87828125 25.2734375 17.23828125 25.2734375 C18.22916192 28.35617735 18.16310658 30.19068641 17.23828125 33.2734375 C17.23828125 33.9334375 17.23828125 34.5934375 17.23828125 35.2734375 C17.89828125 35.2734375 18.55828125 35.2734375 19.23828125 35.2734375 C18.90828125 36.2634375 18.57828125 37.2534375 18.23828125 38.2734375 C14.36328125 36.5234375 14.36328125 36.5234375 13.23828125 34.2734375 C11.21503057 33.73485209 11.21503057 33.73485209 8.86328125 33.3984375 C4.50022347 32.50362915 4.50022347 32.50362915 2.17578125 30.4609375 C1.08077076 27.90591303 1.00887028 26.02636912 1.23828125 23.2734375 C-0.74171875 23.2734375 -2.72171875 23.2734375 -4.76171875 23.2734375 C-4.76171875 24.5934375 -4.76171875 25.9134375 -4.76171875 27.2734375 C-8.63671875 26.3984375 -8.63671875 26.3984375 -9.76171875 25.2734375 C-9.80235707 23.60726635 -9.80443975 21.93955655 -9.76171875 20.2734375 C-8.38886719 20.19996094 -8.38886719 20.19996094 -6.98828125 20.125 C-5.79976562 20.05023438 -4.61125 19.97546875 -3.38671875 19.8984375 C-1.61167969 19.79402344 -1.61167969 19.79402344 0.19921875 19.6875 C3.34390444 19.57126404 3.34390444 19.57126404 5.23828125 17.2734375 C8.86328125 17.1484375 8.86328125 17.1484375 12.23828125 17.2734375 C12.23828125 15.6234375 12.23828125 13.9734375 12.23828125 12.2734375 C3.32828125 12.2734375 -5.58171875 12.2734375 -14.76171875 12.2734375 C-14.76171875 20.1934375 -14.76171875 28.1134375 -14.76171875 36.2734375 C-15.75171875 36.2734375 -16.74171875 36.2734375 -17.76171875 36.2734375 C-17.76171875 28.3534375 -17.76171875 20.4334375 -17.76171875 12.2734375 C-20.07171875 12.2734375 -22.38171875 12.2734375 -24.76171875 12.2734375 C-24.76171875 14.5834375 -24.76171875 16.8934375 -24.76171875 19.2734375 C-28.72171875 19.2734375 -32.68171875 19.2734375 -36.76171875 19.2734375 C-36.76171875 20.2634375 -36.76171875 21.2534375 -36.76171875 22.2734375 C-36.07464844 22.23863281 -35.38757813 22.20382813 -34.6796875 22.16796875 C-33.77863281 22.14089844 -32.87757812 22.11382812 -31.94921875 22.0859375 C-30.60923828 22.03373047 -30.60923828 22.03373047 -29.2421875 21.98046875 C-26.76171875 22.2734375 -26.76171875 22.2734375 -24.92578125 23.59375 C-23.76171875 25.2734375 -23.76171875 25.2734375 -23.94921875 28.3359375 C-24.76171875 31.2734375 -24.76171875 31.2734375 -26.76171875 33.2734375 C-27.75171875 33.2734375 -28.74171875 33.2734375 -29.76171875 33.2734375 C-29.76171875 32.2834375 -29.76171875 31.2934375 -29.76171875 30.2734375 C-29.10171875 29.9434375 -28.44171875 29.6134375 -27.76171875 29.2734375 C-28.09171875 27.9534375 -28.42171875 26.6334375 -28.76171875 25.2734375 C-31.07171875 25.6034375 -33.38171875 25.9334375 -35.76171875 26.2734375 C-35.84398543 29.31730474 -35.73780092 31.34519098 -34.76171875 34.2734375 C-32.33788798 35.44297166 -32.33788798 35.44297166 -29.76171875 36.2734375 C-29.10171875 36.6034375 -28.44171875 36.9334375 -27.76171875 37.2734375 C-28.09171875 38.2634375 -28.42171875 39.2534375 -28.76171875 40.2734375 C-33.24004063 38.73801286 -37.56598901 36.66489698 -39.76171875 32.2734375 C-39.85944877 29.7410803 -39.90082262 27.24258158 -39.88671875 24.7109375 C-39.89058594 24.01291016 -39.89445312 23.31488281 -39.8984375 22.59570312 C-39.88835869 17.40007744 -39.88835869 17.40007744 -38.76171875 16.2734375 C-36.90884373 16.20117248 -35.05337997 16.1896253 -33.19921875 16.2109375 C-32.18730469 16.21996094 -31.17539062 16.22898437 -30.1328125 16.23828125 C-28.95912109 16.25568359 -28.95912109 16.25568359 -27.76171875 16.2734375 C-27.76171875 14.9534375 -27.76171875 13.6334375 -27.76171875 12.2734375 C-33.70171875 12.2734375 -39.64171875 12.2734375 -45.76171875 12.2734375 C-45.76171875 20.1934375 -45.76171875 28.1134375 -45.76171875 36.2734375 C-46.75171875 36.2734375 -47.74171875 36.2734375 -48.76171875 36.2734375 C-48.76171875 28.3534375 -48.76171875 20.4334375 -48.76171875 12.2734375 C-50.08171875 12.2734375 -51.40171875 12.2734375 -52.76171875 12.2734375 C-52.76171875 11.6134375 -52.76171875 10.9534375 -52.76171875 10.2734375 C-51.44171875 10.2734375 -50.12171875 10.2734375 -48.76171875 10.2734375 C-48.76171875 8.2934375 -48.76171875 6.3134375 -48.76171875 4.2734375 C-46.76171875 8.0234375 -46.76171875 8.0234375 -46.76171875 10.2734375 C-37.52171875 9.9434375 -28.28171875 9.6134375 -18.76171875 9.2734375 C-18.76171875 6.9634375 -18.76171875 4.6534375 -18.76171875 2.2734375 C-14.3023457 -2.89394028 -6.00340001 -1.57939519 0 0 Z " fill="#DFE4E4" transform="translate(85.76171875,25.7265625)"/>
<path d="M0 0 C8.91 0 17.82 0 27 0 C27 1.65 27 3.3 27 5 C25.88625 5.12375 24.7725 5.2475 23.625 5.375 C19.96896323 5.6465813 19.96896323 5.6465813 18 8 C14.9609375 8.1953125 14.9609375 8.1953125 11.375 8.125 C10.18648437 8.10695313 8.99796875 8.08890625 7.7734375 8.0703125 C6.85820313 8.04710937 5.94296875 8.02390625 5 8 C5.77479736 10.99152582 5.77479736 10.99152582 7 14 C7.99 14.33 8.98 14.66 10 15 C10 13.68 10 12.36 10 11 C11.98 11 13.96 11 16 11 C16.4640625 12.670625 16.4640625 12.670625 16.9375 14.375 C17.82326483 17.7945155 17.82326483 17.7945155 19 20 C16.69 20.33 14.38 20.66 12 21 C12 21.99 12 22.98 12 24 C10.68 24 9.36 24 8 24 C8 24.99 8 25.98 8 27 C4.39006828 28.13480527 1.0157673 28.10015767 -2.75 28.0625 C-3.92046875 28.05347656 -5.0909375 28.04445313 -6.296875 28.03515625 C-7.18890625 28.02355469 -8.0809375 28.01195313 -9 28 C-9.99 26.02 -10.98 24.04 -12 22 C-10.71034824 20.62437146 -9.37310707 19.29233607 -8 18 C-7.34 18 -6.68 18 -6 18 C-5.67 16.35 -5.34 14.7 -5 13 C-4.67 13 -4.34 13 -4 13 C-3.67 16.3 -3.34 19.6 -3 23 C-2.01 23.33 -1.02 23.66 0 24 C0 16.08 0 8.16 0 0 Z " fill="#054136" transform="translate(71,38)"/>
<path d="M0 0 C2 3.75 2 3.75 2 6 C2.79881592 5.96447021 3.59763184 5.92894043 4.4206543 5.89233398 C20.67999739 5.19372223 36.74528615 4.83382296 53 6 C53 6.33 53 6.66 53 7 C46.4 7 39.8 7 33 7 C33 14.92 33 22.84 33 31 C32.34 31 31.68 31 31 31 C31 23.41 31 15.82 31 8 C28.69 8 26.38 8 24 8 C24 10.31 24 12.62 24 15 C20.04 15 16.08 15 12 15 C12 15.99 12 16.98 12 18 C12.68707031 17.96519531 13.37414062 17.93039063 14.08203125 17.89453125 C14.98308594 17.86746094 15.88414063 17.84039062 16.8125 17.8125 C18.15248047 17.76029297 18.15248047 17.76029297 19.51953125 17.70703125 C22 18 22 18 23.8359375 19.3203125 C25 21 25 21 24.8125 24.0625 C24 27 24 27 22 29 C21.01 29 20.02 29 19 29 C19 28.01 19 27.02 19 26 C19.66 25.67 20.32 25.34 21 25 C20.67 23.68 20.34 22.36 20 21 C17.69 21.33 15.38 21.66 13 22 C12.91773332 25.04386724 13.02391783 27.07175348 14 30 C16.42383077 31.16953416 16.42383077 31.16953416 19 32 C19.66 32.33 20.32 32.66 21 33 C20.67 33.99 20.34 34.98 20 36 C15.52167812 34.46457536 11.19572974 32.39145948 9 28 C8.90226998 25.4676428 8.86089613 22.96914408 8.875 20.4375 C8.87113281 19.73947266 8.86726563 19.04144531 8.86328125 18.32226562 C8.87336006 13.12663994 8.87336006 13.12663994 10 12 C11.85287502 11.92773498 13.70833878 11.9161878 15.5625 11.9375 C16.57441406 11.94652344 17.58632813 11.95554687 18.62890625 11.96484375 C19.80259766 11.98224609 19.80259766 11.98224609 21 12 C21 10.68 21 9.36 21 8 C15.06 8 9.12 8 3 8 C3 15.92 3 23.84 3 32 C2.01 32 1.02 32 0 32 C0 24.08 0 16.16 0 8 C-1.32 8 -2.64 8 -4 8 C-4 7.34 -4 6.68 -4 6 C-2.68 6 -1.36 6 0 6 C0 4.02 0 2.04 0 0 Z " fill="#F9F4F6" transform="translate(37,30)"/>
<path d="M0 0 C2.97 0 5.94 0 9 0 C9 0.66 9 1.32 9 2 C7.02 2 5.04 2 3 2 C3 4.64 3 7.28 3 10 C2.36191406 10.06058594 1.72382812 10.12117188 1.06640625 10.18359375 C0.24011719 10.26738281 -0.58617188 10.35117187 -1.4375 10.4375 C-2.67306641 10.55931641 -2.67306641 10.55931641 -3.93359375 10.68359375 C-5.98662025 10.78930815 -5.98662025 10.78930815 -7 12 C-7.04080783 13.99958364 -7.04254356 16.00045254 -7 18 C-4.69 18.66 -2.38 19.32 0 20 C0.33 18.35 0.66 16.7 1 15 C2.32 15 3.64 15 5 15 C5.99088067 18.08273985 5.92482533 19.91724891 5 23 C5 23.66 5 24.32 5 25 C5.66 25 6.32 25 7 25 C6.67 25.99 6.34 26.98 6 28 C2.125 26.25 2.125 26.25 1 24 C-1.02325068 23.46141459 -1.02325068 23.46141459 -3.375 23.125 C-7.73805778 22.23019165 -7.73805778 22.23019165 -10.0625 20.1875 C-11.15751049 17.63247553 -11.22941097 15.75293162 -11 13 C-12.98 13 -14.96 13 -17 13 C-17 14.32 -17 15.64 -17 17 C-20.875 16.125 -20.875 16.125 -22 15 C-22.04063832 13.33382885 -22.042721 11.66611905 -22 10 C-21.08476563 9.95101562 -20.16953125 9.90203125 -19.2265625 9.8515625 C-18.03804688 9.77679688 -16.84953125 9.70203125 -15.625 9.625 C-14.44164063 9.55539063 -13.25828125 9.48578125 -12.0390625 9.4140625 C-8.89437681 9.29782654 -8.89437681 9.29782654 -7 7 C-4.31160615 6.73008094 -1.70858064 6.91262643 1 7 C0.67 4.69 0.34 2.38 0 0 Z " fill="#C9D4D2" transform="translate(98,36)"/>
<path d="M0 0 C3.99873863 2.27596191 7.67888792 4.80709261 11 8 C11 8.99 11 9.98 11 11 C4.4 11 -2.2 11 -9 11 C-9.33 10.34 -9.66 9.68 -10 9 C-10.33 9.66 -10.66 10.32 -11 11 C-12.32 10.67 -13.64 10.34 -15 10 C-14.01 10 -13.02 10 -12 10 C-12.0825 8.906875 -12.165 7.81375 -12.25 6.6875 C-12 3 -12 3 -10.5 1.0625 C-6.7846451 -0.51652583 -3.87838162 -1.02230817 0 0 Z " fill="#DEE1E2" transform="translate(48,25)"/>
<path d="M0 0 C4.95 0.33 9.9 0.66 15 1 C15 1.33 15 1.66 15 2 C11.04 2 7.08 2 3 2 C3 2.99 3 3.98 3 5 C3.68707031 4.96519531 4.37414063 4.93039063 5.08203125 4.89453125 C5.98308594 4.86746094 6.88414063 4.84039062 7.8125 4.8125 C8.70582031 4.77769531 9.59914063 4.74289063 10.51953125 4.70703125 C13 5 13 5 14.8359375 6.3203125 C16 8 16 8 15.8125 11.0625 C15 14 15 14 13 16 C12.01 16 11.02 16 10 16 C10 15.01 10 14.02 10 13 C10.66 12.67 11.32 12.34 12 12 C11.67 10.68 11.34 9.36 11 8 C8.69 8.33 6.38 8.66 4 9 C3.91773332 12.04386724 4.02391783 14.07175348 5 17 C7.42383077 18.16953416 7.42383077 18.16953416 10 19 C10.66 19.33 11.32 19.66 12 20 C11.67 20.99 11.34 21.98 11 23 C6.52167812 21.46457536 2.19572974 19.39145948 0 15 C-0.07173806 12.44612508 -0.09287732 9.92723239 -0.0625 7.375 C-0.041875 4.94125 -0.02125 2.5075 0 0 Z " fill="#D5DCDB" transform="translate(46,43)"/>
<path d="M0 0 C7.72258423 0.05529297 14.04388519 1.79388519 19.5625 7.3125 C10.9825 7.3125 2.4025 7.3125 -6.4375 7.3125 C-6.4375 0.1558121 -6.4375 0.1558121 0 0 Z " fill="#064236" transform="translate(76.4375,27.6875)"/>
<path d="M0 0 C4.62 0 9.24 0 14 0 C13.67 4.29 13.34 8.58 13 13 C12.01 13 11.02 13 10 13 C10 12.01 10 11.02 10 10 C8.35 10 6.7 10 5 10 C5 10.66 5 11.32 5 12 C3.68 11.34 2.36 10.68 1 10 C1 9.34 1 8.68 1 8 C1.66 8 2.32 8 3 8 C3 6.02 3 4.04 3 2 C2.01 2 1.02 2 0 2 C0 1.34 0 0.68 0 0 Z " fill="#AFBDBC" transform="translate(25,74)"/>
<path d="M0 0 C2.64 0 5.28 0 8 0 C8 2.31 8 4.62 8 7 C6.68 7.33 5.36 7.66 4 8 C5.26946514 12.82442184 5.26946514 12.82442184 9 16 C8.195625 16.12375 7.39125 16.2475 6.5625 16.375 C5.716875 16.58125 4.87125 16.7875 4 17 C3.67 17.66 3.34 18.32 3 19 C2.01 19 1.02 19 0 19 C0 12.73 0 6.46 0 0 Z " fill="#074A3F" transform="translate(72,38)"/>
<path d="M0 0 C1.69584534 2.52539423 1.33515315 4.73637456 1.13793945 7.69458008 C0.80793945 7.69458008 0.47793945 7.69458008 0.13793945 7.69458008 C0.13793945 6.04458008 0.13793945 4.39458008 0.13793945 2.69458008 C-8.77206055 2.69458008 -17.68206055 2.69458008 -26.86206055 2.69458008 C-26.86206055 10.61458008 -26.86206055 18.53458008 -26.86206055 26.69458008 C-27.85206055 26.36458008 -28.84206055 26.03458008 -29.86206055 25.69458008 C-29.20206055 25.69458008 -28.54206055 25.69458008 -27.86206055 25.69458008 C-27.86206055 17.11458008 -27.86206055 8.53458008 -27.86206055 -0.30541992 C-23.63393555 -0.53229492 -19.40581055 -0.75916992 -15.04956055 -0.99291992 C-13.05445435 -1.11219849 -13.05445435 -1.11219849 -11.01904297 -1.23388672 C-9.97079346 -1.28198486 -8.92254395 -1.33008301 -7.8425293 -1.37963867 C-6.76898193 -1.43724365 -5.69543457 -1.49484863 -4.58935547 -1.55419922 C-1.86206055 -1.30541992 -1.86206055 -1.30541992 0 0 Z M0.13793945 -0.30541992 C3.10793945 -0.30541992 6.07793945 -0.30541992 9.13793945 -0.30541992 C9.13793945 0.02458008 9.13793945 0.35458008 9.13793945 0.69458008 C6.16793945 0.69458008 3.19793945 0.69458008 0.13793945 0.69458008 C0.13793945 0.36458008 0.13793945 0.03458008 0.13793945 -0.30541992 Z " fill="#BFCDCC" transform="translate(97.862060546875,35.305419921875)"/>
<path d="M0 0 C0.33 0 0.66 0 1 0 C1.66 1.98 2.32 3.96 3 6 C5.97 6.495 5.97 6.495 9 7 C9.33 5.35 9.66 3.7 10 2 C11.32 2 12.64 2 14 2 C14.99088067 5.08273985 14.92482533 6.91724891 14 10 C14 10.66 14 11.32 14 12 C14.66 12 15.32 12 16 12 C15.67 12.99 15.34 13.98 15 15 C11.125 13.25 11.125 13.25 10 11 C7.97674932 10.46141459 7.97674932 10.46141459 5.625 10.125 C1.25803851 9.25021916 1.25803851 9.25021916 -1.0625 7 C-2 5 -2 5 -2 3 C-1.34 3 -0.68 3 0 3 C0 2.01 0 1.02 0 0 Z " fill="#D1D8D8" transform="translate(89,49)"/>
<path d="M0 0 C4.95 0 9.9 0 15 0 C15 0.66 15 1.32 15 2 C14.34 2 13.68 2 13 2 C13 6.29 13 10.58 13 15 C12.34 15 11.68 15 11 15 C11 12.03 11 9.06 11 6 C9.02 6.99 9.02 6.99 7 8 C7 7.34 7 6.68 7 6 C6.01 6 5.02 6 4 6 C5.05875074 9.40312738 6.00902154 12.01353231 8 15 C3.125 13.25 3.125 13.25 2 11 C1.960008 9.00039988 1.95653201 6.99952758 2 5 C5.153368 4.29925156 7.72724974 4 11 4 C11 3.34 11 2.68 11 2 C7.37 2 3.74 2 0 2 C0 1.34 0 0.68 0 0 Z " fill="#CED6D6" transform="translate(7,13)"/>
<path d="M0 0 C2.48727351 4.64291055 3.12564358 8.37900762 3.09765625 13.640625 C3.09282227 15.24550781 3.09282227 15.24550781 3.08789062 16.8828125 C3.07951172 17.99398437 3.07113281 19.10515625 3.0625 20.25 C3.05798828 21.37664063 3.05347656 22.50328125 3.04882812 23.6640625 C3.03705397 26.44276217 3.0206084 29.22135409 3 32 C2.01 32 1.02 32 0 32 C0 24.08 0 16.16 0 8 C-1.32 8 -2.64 8 -4 8 C-4 7.34 -4 6.68 -4 6 C-2.68 6 -1.36 6 0 6 C0 4.02 0 2.04 0 0 Z " fill="#E8EBEB" transform="translate(37,30)"/>
<path d="M0 0 C4.94356769 0.47081597 8.1025389 2.288324 11.9375 5.375 C12.2675 6.035 12.5975 6.695 12.9375 7.375 C7.3275 7.375 1.7175 7.375 -4.0625 7.375 C-4.0625 0.49744898 -4.0625 0.49744898 0 0 Z " fill="#073C2F" transform="translate(43.0625,27.625)"/>
<path d="M0 0 C4.62 0 9.24 0 14 0 C14 0.66 14 1.32 14 2 C12.68 2 11.36 2 10 2 C10 3.65 10 5.3 10 7 C8.02 7 6.04 7 4 7 C4.33 8.65 4.66 10.3 5 12 C5.99 12.33 6.98 12.66 8 13 C8.33 11.68 8.66 10.36 9 9 C9.66 9 10.32 9 11 9 C10.979375 9.763125 10.95875 10.52625 10.9375 11.3125 C10.87057159 14.10185786 10.87057159 14.10185786 12 17 C11.01 16.67 10.02 16.34 9 16 C9 15.34 9 14.68 9 14 C8.21625 14.04125 7.4325 14.0825 6.625 14.125 C4 14 4 14 2 12 C1.8125 8.9375 1.8125 8.9375 2 6 C3 5 3 5 5.5625 4.9375 C6.7690625 4.9684375 6.7690625 4.9684375 8 5 C8 4.01 8 3.02 8 2 C5.36 2 2.72 2 0 2 C0 1.34 0 0.68 0 0 Z " fill="#BAC6C4" transform="translate(50,1)"/>
<path d="M0 0 C4.95 0 9.9 0 15 0 C15 0.66 15 1.32 15 2 C14.34 2 13.68 2 13 2 C13 6.29 13 10.58 13 15 C12.34 15 11.68 15 11 15 C11 14.01 11 13.02 11 12 C9.02 12 7.04 12 5 12 C4.87625 11.21625 4.7525 10.4325 4.625 9.625 C4.20882007 6.85942178 4.20882007 6.85942178 2 5 C4.64 5 7.28 5 10 5 C9.01 5.66 8.02 6.32 7 7 C6.27617533 9.05925139 6.27617533 9.05925139 6 11 C8.06402968 10.51294288 8.06402968 10.51294288 10 9 C10.81870185 5.43793339 10.81870185 5.43793339 11 2 C7.37 2 3.74 2 0 2 C0 1.34 0 0.68 0 0 Z " fill="#D2DBDB" transform="translate(95,4)"/>
<path d="M0 0 C4.29 0 8.58 0 13 0 C13 0.66 13 1.32 13 2 C12.34 2 11.68 2 11 2 C11 6.29 11 10.58 11 15 C10.34 15 9.68 15 9 15 C9 12.69 9 10.38 9 8 C7.68 8 6.36 8 5 8 C5 8.66 5 9.32 5 10 C4.01 10 3.02 10 2 10 C1.67 8.68 1.34 7.36 1 6 C3.64 6 6.28 6 9 6 C9 4.68 9 3.36 9 2 C6.03 2 3.06 2 0 2 C0 1.34 0 0.68 0 0 Z " fill="#D0D9D9" transform="translate(5,51)"/>
<path d="M0 0 C4.29 0 8.58 0 13 0 C12.01 0.495 12.01 0.495 11 1 C11 3.64 11 6.28 11 9 C9.68 9.33 8.36 9.66 7 10 C7 9.34 7 8.68 7 8 C7.66 8 8.32 8 9 8 C9 5.69 9 3.38 9 1 C7.35 1 5.7 1 4 1 C4.01325021 4.10054877 4.18016829 7.0008688 5 10 C7.88509913 12.42422186 7.88509913 12.42422186 11 14 C11.33 14.99 11.66 15.98 12 17 C10 17 10 17 8.6875 15.75 C8.130625 15.1725 7.57375 14.595 7 14 C6.113125 13.46375 5.22625 12.9275 4.3125 12.375 C1.61982685 9.6095519 1.67589194 8.95296981 1.6875 5.25 C1.76756155 3.83176684 1.86404137 2.41396973 2 1 C1.34 0.67 0.68 0.34 0 0 Z " fill="#D7DDDD" transform="translate(122,28)"/>
<path d="M0 0 C5.49579218 -0.54957922 9.46460996 1.03413634 14 4 C14.33 4.66 14.66 5.32 15 6 C6.75 6 -1.5 6 -10 6 C-10 5.67 -10 5.34 -10 5 C-6.04 5 -2.08 5 2 5 C1.34 3.35 0.68 1.7 0 0 Z " fill="#043B2D" transform="translate(81,29)"/>
<path d="M0 0 C3.96 0 7.92 0 12 0 C12 0.66 12 1.32 12 2 C11.01 2.33 10.02 2.66 9 3 C9 4.65 9 6.3 9 8 C8.01 8.33 7.02 8.66 6 9 C6.66 9.78375 7.32 10.5675 8 11.375 C10 14 10 14 10 16 C5.79236776 14.4972742 4.1972242 11.76667005 2 8 C2 7.34 2 6.68 2 6 C3.32 6.33 4.64 6.66 6 7 C6 5.68 6 4.36 6 3 C3.03 2.505 3.03 2.505 0 2 C0 1.34 0 0.68 0 0 Z " fill="#C6D0CF" transform="translate(118,66)"/>
<path d="M0 0 C3.12498063 -0.02895976 6.2499269 -0.04678483 9.375 -0.0625 C10.70917969 -0.07506836 10.70917969 -0.07506836 12.0703125 -0.08789062 C13.34648438 -0.09272461 13.34648438 -0.09272461 14.6484375 -0.09765625 C15.43395996 -0.10289307 16.21948242 -0.10812988 17.02880859 -0.11352539 C19 0 19 0 21 1 C21 2.98 21 4.96 21 7 C16.38 7 11.76 7 7 7 C7 6.34 7 5.68 7 5 C10.63 5 14.26 5 18 5 C18 3.68 18 2.36 18 1 C12.06 1 6.12 1 0 1 C0 0.67 0 0.34 0 0 Z " fill="#EAEEEE" transform="translate(40,37)"/>
<path d="M0 0 C4.29 0 8.58 0 13 0 C12.01 0.495 12.01 0.495 11 1 C11 4.3 11 7.6 11 11 C10.34 11 9.68 11 9 11 C9 7.7 9 4.4 9 1 C7.68 1 6.36 1 5 1 C5 3.97 5 6.94 5 10 C3.68 9.34 2.36 8.68 1 8 C1 7.34 1 6.68 1 6 C1.66 6 2.32 6 3 6 C3 4.35 3 2.7 3 1 C2.01 0.67 1.02 0.34 0 0 Z " fill="#E5E9EA" transform="translate(73,76)"/>
<path d="M0 0 C0 0.66 0 1.32 0 2 C-2.64 2.66 -5.28 3.32 -8 4 C-8.33 6.31 -8.66 8.62 -9 11 C-12.3 11 -15.6 11 -19 11 C-19 10.67 -19 10.34 -19 10 C-16.69 10 -14.38 10 -12 10 C-12.12375 8.3603125 -12.12375 8.3603125 -12.25 6.6875 C-12 3 -12 3 -10.5 1.0625 C-6.87802345 -0.47684003 -3.92037077 -0.19601854 0 0 Z " fill="#D0DBD9" transform="translate(79,25)"/>
<path d="M0 0 C2.64 1.98 5.28 3.96 8 6 C7.67 6.66 7.34 7.32 7 8 C0.4 8 -6.2 8 -13 8 C-13 7.67 -13 7.34 -13 7 C-5.08 6.505 -5.08 6.505 3 6 C1.02 4.68 -0.96 3.36 -3 2 C-2.01 1.34 -1.02 0.68 0 0 Z " fill="#C3D1CF" transform="translate(52,28)"/>
<path d="M0 0 C2.97 0 5.94 0 9 0 C9 0.66 9 1.32 9 2 C7.02 2 5.04 2 3 2 C3 4.31 3 6.62 3 9 C0.36 9 -2.28 9 -5 9 C-5 8.34 -5 7.68 -5 7 C-3.02 7 -1.04 7 1 7 C0.67 4.69 0.34 2.38 0 0 Z " fill="#F3F2F3" transform="translate(98,36)"/>
<path d="M0 0 C3.96 0 7.92 0 12 0 C12 0.66 12 1.32 12 2 C9.69 2 7.38 2 5 2 C5 3.32 5 4.64 5 6 C3.68 5.67 2.36 5.34 1 5 C0.67 3.35 0.34 1.7 0 0 Z " fill="#EEEFF0" transform="translate(76,47)"/>
<path d="M0 0 C0.33 0 0.66 0 1 0 C1 2.31 1 4.62 1 7 C2.98 7 4.96 7 7 7 C7 4.69 7 2.38 7 0 C7.33 0 7.66 0 8 0 C8 3.96 8 7.92 8 12 C7.34 12 6.68 12 6 12 C6 11.01 6 10.02 6 9 C4.35 9 2.7 9 1 9 C1 9.66 1 10.32 1 11 C0.34 11 -0.32 11 -1 11 C-0.67 7.37 -0.34 3.74 0 0 Z " fill="#DCE1E1" transform="translate(29,75)"/>
<path d="M0 0 C1.98 0 3.96 0 6 0 C6 1.98 6 3.96 6 6 C4.02 6 2.04 6 0 6 C0 4.02 0 2.04 0 0 Z " fill="#184439" transform="translate(30,76)"/>
<path d="M0 0 C0.33 0 0.66 0 1 0 C1.185625 0.928125 1.37125 1.85625 1.5625 2.8125 C3.10727559 6.23787197 3.38621238 6.5205979 6.625 7.875 C7.73875 8.24625 8.8525 8.6175 10 9 C10 9.33 10 9.66 10 10 C5.50003317 10.44117322 3.65388883 10.52867608 0.0625 7.625 C-2 5 -2 5 -2 3 C-1.34 3 -0.68 3 0 3 C0 2.01 0 1.02 0 0 Z " fill="#E6E8E9" transform="translate(89,49)"/>
<path d="M0 0 C4.95 0.33 9.9 0.66 15 1 C15 1.33 15 1.66 15 2 C11.04 2 7.08 2 3 2 C3 2.99 3 3.98 3 5 C3.66 5.33 4.32 5.66 5 6 C4.01 6 3.02 6 2 6 C1.67 6.66 1.34 7.32 1 8 C0 6 0 6 0 0 Z " fill="#B3C0BE" transform="translate(46,43)"/>
<path d="M0 0 C2.64 0 5.28 0 8 0 C8 1.32 8 2.64 8 4 C5.36 4 2.72 4 0 4 C0 2.68 0 1.36 0 0 Z " fill="#002E20" transform="translate(6,53)"/>
<path d="M0 0 C0.433125 0.639375 0.86625 1.27875 1.3125 1.9375 C2.91239177 4.26746003 2.91239177 4.26746003 6 5 C6.33 3.68 6.66 2.36 7 1 C7.66 1 8.32 1 9 1 C8.979375 1.763125 8.95875 2.52625 8.9375 3.3125 C8.87057159 6.10185786 8.87057159 6.10185786 10 9 C9.01 8.67 8.02 8.34 7 8 C7 7.34 7 6.68 7 6 C6.21625 6.04125 5.4325 6.0825 4.625 6.125 C2 6 2 6 0 4 C0 2.68 0 1.36 0 0 Z " fill="#DFE5E5" transform="translate(52,9)"/>
<path d="M0 0 C6.625 0.75 6.625 0.75 10 3 C4.49983036 4.30267176 -0.47032059 3.71033431 -6 3 C-6 2.67 -6 2.34 -6 2 C-4.02 2 -2.04 2 0 2 C0 1.34 0 0.68 0 0 Z " fill="#C6D0CF" transform="translate(79,25)"/>
<path d="M0 0 C3.96 0 7.92 0 12 0 C12 0.66 12 1.32 12 2 C10.68 2 9.36 2 8 2 C7.67 2.99 7.34 3.98 7 5 C6.67 4.34 6.34 3.68 6 3 C2.97065509 2.34227572 2.97065509 2.34227572 0 2 C0 1.34 0 0.68 0 0 Z " fill="#BAC5C4" transform="translate(118,66)"/>
<path d="M0 0 C1.32 0.66 2.64 1.32 4 2 C3.67 3.32 3.34 4.64 3 6 C1.35 6 -0.3 6 -2 6 C-1.125 1.125 -1.125 1.125 0 0 Z " fill="#DBE1E1" transform="translate(100,50)"/>
<path d="M0 0 C0 0.66 0 1.32 0 2 C-7.625 4 -7.625 4 -11 4 C-10.67 3.01 -10.34 2.02 -10 1 C-6.78548731 -0.60725635 -3.56387464 -0.05748185 0 0 Z " fill="#F4F3F5" transform="translate(79,25)"/>
<path d="M0 0 C0.33 0 0.66 0 1 0 C1.66 2.97 2.32 5.94 3 9 C3.99 9 4.98 9 6 9 C6.33 10.32 6.66 11.64 7 13 C3.535 11.02 3.535 11.02 0 9 C0 6.03 0 3.06 0 0 Z " fill="#2A4F45" transform="translate(126,29)"/>
<path d="M0 0 C3.96 0 7.92 0 12 0 C8.96474514 2.02350324 7.80573798 2.32124018 4.3125 2.625 C3.50425781 2.69976562 2.69601563 2.77453125 1.86328125 2.8515625 C1.24839844 2.90054688 0.63351563 2.94953125 0 3 C0 2.01 0 1.02 0 0 Z " fill="#023B2E" transform="translate(49,45)"/>
<path d="M0 0 C0.66 0 1.32 0 2 0 C2 2.97 2 5.94 2 9 C0.68 8.34 -0.64 7.68 -2 7 C-2 6.34 -2 5.68 -2 5 C-1.34 5 -0.68 5 0 5 C0 3.35 0 1.7 0 0 Z " fill="#DCE3E3" transform="translate(76,77)"/>
<path d="M0 0 C2 3 2 3 1.75 5.5625 C1 8 1 8 -1 10 C-3.125 9.625 -3.125 9.625 -5 9 C-4.01 9 -3.02 9 -2 9 C-2.04125 7.88625 -2.0825 6.7725 -2.125 5.625 C-2 2 -2 2 0 0 Z " fill="#CED7D6" transform="translate(38,26)"/>
<path d="M0 0 C2.64 0 5.28 0 8 0 C8 0.66 8 1.32 8 2 C6.68 2 5.36 2 4 2 C4 2.66 4 3.32 4 4 C3.01 4 2.02 4 1 4 C0.67 2.68 0.34 1.36 0 0 Z " fill="#C8D1D0" transform="translate(6,57)"/>
<path d="M0 0 C0 0.66 0 1.32 0 2 C-3.3 2.66 -6.6 3.32 -10 4 C-9.67 3.01 -9.34 2.02 -9 1 C-5.8035914 -0.06546953 -3.34252724 -0.07427838 0 0 Z " fill="#F4F5F6" transform="translate(57,48)"/>
<path d="M0 0 C6.93 0.495 6.93 0.495 14 1 C14 1.33 14 1.66 14 2 C7.565 2.495 7.565 2.495 1 3 C0.67 2.01 0.34 1.02 0 0 Z " fill="#28544B" transform="translate(44,40)"/>
<path d="M0 0 C0.99 0 1.98 0 3 0 C3 2.31 3 4.62 3 7 C2.01 6.67 1.02 6.34 0 6 C0 4.02 0 2.04 0 0 Z " fill="#E1E6E6" transform="translate(46,52)"/>
<path d="M0 0 C3.63 0 7.26 0 11 0 C11 0.66 11 1.32 11 2 C6.99799622 3.60080151 3.95443764 2.29279692 0 1 C0 0.67 0 0.34 0 0 Z " fill="#042E1F" transform="translate(7,15)"/>
<path d="M0 0 C2.475 0.495 2.475 0.495 5 1 C5 1.66 5 2.32 5 3 C3.35 3.66 1.7 4.32 0 5 C0 3.35 0 1.7 0 0 Z " fill="#1F493C" transform="translate(11,19)"/>
</svg>
